<?xml version="1.0" encoding="UTF-8" standalone="no"?>
<!-- Created with Inkscape (http://www.inkscape.org/) -->

<svg
   xmlns:dc="http://purl.org/dc/elements/1.1/"
   xmlns:cc="http://creativecommons.org/ns#"
   xmlns:rdf="http://www.w3.org/1999/02/22-rdf-syntax-ns#"
   xmlns:svg="http://www.w3.org/2000/svg"
   xmlns="http://www.w3.org/2000/svg"
   xmlns:sodipodi="http://sodipodi.sourceforge.net/DTD/sodipodi-0.dtd"
   xmlns:inkscape="http://www.inkscape.org/namespaces/inkscape"
   width="79.531792mm"
   height="37.814358mm"
   viewBox="0 0 281.80556 133.98788"
   id="svg3660"
   version="1.1"
   inkscape:version="0.91 r13725"
   sodipodi:docname="YO.svg">
  <defs
     id="defs3662">
    <clipPath
       clipPathUnits="userSpaceOnUse"
       id="clipPath220">
      <path
         d="M 0,792 792,792 792,0 0,0 0,792 Z"
         id="path222"
         inkscape:connector-curvature="0" />
    </clipPath>
  </defs>
  <sodipodi:namedview
     id="base"
     pagecolor="#ffffff"
     bordercolor="#666666"
     borderopacity="1.0"
     inkscape:pageopacity="0.0"
     inkscape:pageshadow="2"
     inkscape:zoom="0.98994949"
     inkscape:cx="163.93649"
     inkscape:cy="-20.083188"
     inkscape:document-units="px"
     inkscape:current-layer="layer1"
     showgrid="false"
     fit-margin-top="0"
     fit-margin-left="0"
     fit-margin-right="0"
     fit-margin-bottom="0"
     inkscape:window-width="1366"
     inkscape:window-height="744"
     inkscape:window-x="0"
     inkscape:window-y="24"
     inkscape:window-maximized="1" />
  <metadata
     id="metadata3665">
    <rdf:RDF>
      <cc:Work
         rdf:about="">
        <dc:format>image/svg+xml</dc:format>
        <dc:type
           rdf:resource="http://purl.org/dc/dcmitype/StillImage" />
        <dc:title></dc:title>
      </cc:Work>
    </rdf:RDF>
  </metadata>
  <g
     inkscape:label="Layer 1"
     inkscape:groupmode="layer"
     id="layer1"
     transform="translate(-61.954363,-73.93969)">
    <g
       id="g216"
       transform="matrix(1.25,0,0,-1.25,-477.88032,654.71657)">
      <g
         id="g218"
         clip-path="url(#clipPath220)">
        <g
           id="g224"
           transform="translate(436.0142,388.3994)">
          <path
             d="M 0,0 C -0.406,0 -0.82,0.063 -1.227,0.196 -3.302,0.873 -4.436,3.105 -3.759,5.18 l 20.561,63.004 c 0.677,2.075 2.908,3.209 4.984,2.531 2.076,-0.677 3.21,-2.909 2.532,-4.984 L 7.59,5.22 C 7.045,3.552 1.665,0 0,0"
             style="fill:#ffffff;fill-opacity:1;fill-rule:nonzero;stroke:none"
             id="path226"
             inkscape:connector-curvature="0" />
        </g>
        <g
           id="g228"
           transform="translate(503.396,394.2134)">
          <path
             d="m 0,0 c -1.152,0 -3.087,0.755 -3.869,1.721 l -46.027,57.53 c -1.372,1.698 -1.108,4.187 0.59,5.559 1.697,1.372 4.186,1.108 5.558,-0.589 L 3.749,9.523 C 5.122,7.825 3.477,2.982 1.779,1.609 1.047,1.019 0.873,0 0,0"
             style="fill:#ffffff;fill-opacity:1;fill-rule:nonzero;stroke:none"
             id="path230"
             inkscape:connector-curvature="0" />
        </g>
        <g
           id="g232"
           transform="translate(504.085,443.772)">
          <path
             d="m 0,0 c -1.314,1.742 -3.202,1.624 -4.944,0.307 l -52.264,-38.618 c 0,0 -8.411,-6.914 -12.029,-3.941 l -2.703,-8.355 c -0.226,-1.08 -0.687,-2.823 0.523,-4.318 1.121,-1.384 3.283,-1.944 4.48,-1.944 0.83,0 1.666,0.261 2.38,0.799 L -0.771,-5.536 C 0.97,-4.221 1.316,-1.742 0,0"
             style="fill:#ffffff;fill-opacity:1;fill-rule:nonzero;stroke:none"
             id="path234"
             inkscape:connector-curvature="0" />
        </g>
        <g
           id="g236"
           transform="translate(505.729,441.4385)">
          <path
             d="M 0,0 C -0.089,2.182 -2.782,3.998 -4.959,3.901 -7.14,3.811 -8.836,1.971 -8.748,-0.21 l 1.105,-27.059 c 0,0 0.595,-11.912 -3.754,-11.813 l 5.195,-6.422 c 0.723,-0.965 2.579,-2.315 3.864,-2.315 0.054,0 0.109,0.004 0.163,0.004 4.064,0 5.801,2.661 5.713,4.843 L 0,0 Z"
             style="fill:#ffffff;fill-opacity:1;fill-rule:nonzero;stroke:none"
             id="path238"
             inkscape:connector-curvature="0" />
        </g>
        <g
           id="g240"
           transform="translate(452.6948,444.8311)">
          <path
             d="m 0,0 c 0.593,-0.238 1.2,-0.418 1.812,-0.544 l 0,-0.001 c 1.897,-0.388 3.854,-0.224 5.642,0.441 l 0,0.011 c 0.91,0.337 1.775,0.804 2.569,1.389 0.083,0.062 0.169,0.12 0.249,0.184 0.093,0.073 0.182,0.153 0.272,0.229 0.177,0.151 0.351,0.304 0.519,0.468 0.039,0.038 0.078,0.078 0.116,0.116 0.464,0.47 0.89,0.987 1.266,1.558 3.128,4.733 1.827,11.108 -2.908,14.235 C 5.1,21.02 -0.78,20.059 -4.075,16.026 -4.295,15.757 -4.503,15.474 -4.698,15.179 -4.924,14.837 -5.121,14.484 -5.301,14.128 -5.355,14.021 -5.401,13.912 -5.45,13.802 -5.57,13.542 -5.68,13.279 -5.777,13.014 -5.819,12.897 -5.86,12.781 -5.898,12.665 -5.991,12.374 -6.071,12.082 -6.138,11.787 -6.156,11.706 -6.179,11.625 -6.195,11.542 -6.353,10.759 -6.415,9.967 -6.388,9.18 -6.385,9.12 -6.38,9.06 -6.377,9.001 -6.359,8.658 -6.325,8.317 -6.273,7.978 -6.264,7.919 -6.257,7.86 -6.246,7.802 -6.111,7.011 -5.889,6.235 -5.575,5.493 L -5.578,5.491 C -4.814,3.698 -3.538,2.099 -1.791,0.944 -1.215,0.563 -0.615,0.252 0,0"
             style="fill:#ffffff;fill-opacity:1;fill-rule:nonzero;stroke:none"
             id="path242"
             inkscape:connector-curvature="0" />
        </g>
        <g
           id="g244"
           transform="translate(509.2725,436.1074)">
          <path
             d="m 0,0 c 0.328,0.547 0.603,1.119 0.823,1.704 l 0.001,0 c 0.682,1.812 0.829,3.768 0.453,5.641 l -0.008,0 c -0.19,0.952 -0.516,1.88 -0.969,2.758 -0.047,0.091 -0.09,0.185 -0.141,0.273 -0.058,0.104 -0.122,0.205 -0.183,0.306 -0.122,0.198 -0.246,0.395 -0.382,0.586 -0.031,0.044 -0.063,0.089 -0.095,0.132 -0.39,0.533 -0.835,1.034 -1.338,1.496 -4.182,3.836 -10.682,3.556 -14.517,-0.626 -3.596,-3.919 -3.574,-9.876 -0.111,-13.767 0.23,-0.259 0.476,-0.509 0.737,-0.748 0.302,-0.278 0.619,-0.527 0.943,-0.76 0.097,-0.072 0.198,-0.133 0.297,-0.201 0.239,-0.159 0.48,-0.309 0.727,-0.447 0.109,-0.059 0.217,-0.118 0.327,-0.174 0.272,-0.137 0.548,-0.263 0.829,-0.375 0.077,-0.031 0.154,-0.067 0.233,-0.096 0.749,-0.277 1.52,-0.464 2.302,-0.562 0.059,-0.008 0.118,-0.011 0.178,-0.018 0.342,-0.036 0.685,-0.056 1.027,-0.059 l 0.178,0 c 0.803,0.009 1.604,0.105 2.385,0.299 l 0.003,-0.003 c 1.89,0.47 3.672,1.477 5.086,3.021 0.466,0.509 0.87,1.053 1.215,1.62"
             style="fill:#ffffff;fill-opacity:1;fill-rule:nonzero;stroke:none"
             id="path246"
             inkscape:connector-curvature="0" />
        </g>
        <g
           id="g248"
           transform="translate(651.1392,389.0132)">
          <path
             d="m 0,0 6.173,0 -9.563,-31.579 -6.193,0 3.666,12.078 L -11.854,0 -5.722,0 -2.979,-9.783 0,0 Z m -19.552,-6.006 -4.565,0 0,-8.233 4.565,0 0,8.233 z m 0.525,-25.573 -3.527,11.423 -1.568,0 0,-11.423 -5.938,0 0,27.124 0,4.455 16.441,0 0,-20.066 -3.213,0 3.763,-11.513 -5.958,0 z m -24.788,5.984 5.216,0 0,19.589 -5.216,0 0,-19.589 z M -49.771,0 l 17.103,0 0,-31.582 -17.103,0 0,31.582 z m -2.411,-6.006 -5.349,0 0,-25.573 -5.977,0 0,25.573 -5.545,0 0,6.006 16.871,0 0,-6.006 z m -25.454,0 -5.059,0 0,-9.193 5.059,0 0,9.193 z m -5.056,-25.573 -5.957,0 0,26.578 4.566,5.001 12.385,0 0,-31.579 -5.938,0 0,10.374 -5.056,0 0,-10.374 z M -97.094,0 -91,0 l -3.762,-31.579 -9.405,0 -3.843,31.579 6.194,0 2.351,-24.258 L -97.094,0 Z m -18.752,-6.006 -4.565,0 0,-8.233 4.565,0 0,8.233 z m 0.53,-25.573 -3.528,11.423 -1.571,0 0,-11.423 -5.935,0 0,27.124 0,4.455 16.44,0 0,-20.066 -3.214,0 3.763,-11.513 -5.955,0 z M -142.475,0 l 13.754,0 0,-6.006 -7.879,0 0,-6.093 7.489,0 0,-5.896 -7.409,0 0,-7.6 7.997,0 0,-5.984 -13.952,0 0,31.579 z m -2.568,-31.579 -15.579,0 0,9.828 5.935,0 0,-3.844 3.687,0 0,5.024 -9.428,7.926 0,12.645 15.206,0 0,-9.39 -5.386,0 0,3.362 -3.881,0 0,-4.127 9.446,-7.906 0,-13.518 z m -24.042,13.147 -5.311,0 0,-7.163 5.311,0 0,7.163 z m -0.964,12.426 -4.351,0 0,-6.53 4.351,0 0,6.53 z m 6.92,-12.426 0,-13.147 -13.287,0 -3.92,0 0,31.579 12.15,0 4.016,-4.171 0,-8.691 -2.783,-2.491 3.824,-3.079 z m -30.961,-7.163 5.214,0 0,19.589 -5.214,0 0,-19.589 z M -200.047,0 l 17.107,0 0,-31.582 -17.107,0 0,31.582 z m 189.299,34.143 7.668,0 0,19.53 8.939,0 0,-47.54 -8.939,0 0,19.001 -7.668,0 0,-19.001 -8.939,0 0,47.54 8.939,0 0,-19.53 z m -12.566,10.487 -8.055,0 0,-38.497 -8.996,0 0,38.497 -8.351,0 0,9.043 25.402,0 0,-9.043 z m -29.38,-38.497 -25.223,0 0,47.54 8.939,0 0,-38.532 7.311,0 0,38.532 8.973,0 0,-47.54 z m -45.931,9.008 7.845,0 0,29.489 -7.845,0 0,-29.489 z m -8.97,38.532 25.756,0 0,-47.54 -25.756,0 0,47.54 z m -12.625,0 9.292,0 -14.394,-47.54 -9.324,0 5.517,18.181 -8.939,29.359 9.235,0 4.13,-14.73 4.483,14.73 z"
             style="fill:#ffffff;fill-opacity:1;fill-rule:nonzero;stroke:none"
             id="path250"
             inkscape:connector-curvature="0" />
        </g>
      </g>
    </g>
  </g>
</svg>
