<?xml version="1.0" encoding="utf-8"?>
<!-- Generator: Adobe Illustrator 17.0.0, SVG Export Plug-In . SVG Version: 6.00 Build 0)  -->
<!DOCTYPE svg PUBLIC "-//W3C//DTD SVG 1.1//EN" "http://www.w3.org/Graphics/SVG/1.1/DTD/svg11.dtd">
<svg version="1.1" id="Layer_3" xmlns="http://www.w3.org/2000/svg" xmlns:xlink="http://www.w3.org/1999/xlink" x="0px" y="0px"
	 width="746.663px" height="746.66px" viewBox="0 0 746.663 746.66" enable-background="new 0 0 746.663 746.66"
	 xml:space="preserve">
<path fill-rule="evenodd" clip-rule="evenodd" fill="#FFFFFF" d="M376.122,199.95c49.449,0,89.54,40.088,89.54,89.538
	c0,49.449-40.091,89.54-89.54,89.54c-49.45,0-89.538-40.091-89.538-89.54C286.585,240.038,326.673,199.95,376.122,199.95"/>
<path fill="#FFFFFF" d="M0,0l125.918,0.082l95.05,217.655c-8.474,19.9-13.168,41.801-13.168,64.795
	c0,71.749,45.66,132.831,109.5,155.798l56.024,128.294l56.027-128.289c63.847-22.961,109.512-84.048,109.512-155.802
	c0-22.996-4.692-44.894-13.168-64.797L620.75,0.082L746.663,0L429.22,746.66H317.438L0,0z"/>
</svg>
