<?xml version="1.0" encoding="UTF-8" standalone="no"?>
<!-- Generator: Adobe Illustrator 19.0.0, SVG Export Plug-In . SVG Version: 6.00 Build 0)  -->

<svg
   xmlns:dc="http://purl.org/dc/elements/1.1/"
   xmlns:cc="http://creativecommons.org/ns#"
   xmlns:rdf="http://www.w3.org/1999/02/22-rdf-syntax-ns#"
   xmlns:svg="http://www.w3.org/2000/svg"
   xmlns="http://www.w3.org/2000/svg"
   xmlns:xlink="http://www.w3.org/1999/xlink"
   xmlns:sodipodi="http://sodipodi.sourceforge.net/DTD/sodipodi-0.dtd"
   xmlns:inkscape="http://www.inkscape.org/namespaces/inkscape"
   version="1.1"
   id="Layer_1"
   x="0px"
   y="0px"
   viewBox="0 0 503.607 503.607"
   style="enable-background:new 0 0 503.607 503.607;"
   xml:space="preserve"
   sodipodi:docname="television(2).svg"
   inkscape:version="0.92.3 (2405546, 2018-03-11)"><metadata
   id="metadata63"><rdf:RDF><cc:Work
       rdf:about=""><dc:format>image/svg+xml</dc:format><dc:type
         rdf:resource="http://purl.org/dc/dcmitype/StillImage" /></cc:Work></rdf:RDF></metadata><defs
   id="defs61"><path
     d="M169.3,359L154.6,376c-2.2,2.5-6.1,2.5-8.2,0L38.3,250.3l0,0l-3-3.6c-4.3-5.2-8.3-10.7-11.9-16.4     C8.9,207.3,0.5,180,0.5,150.8v-0.4c0-81,64.2-147,144.4-149.9c3.1-0.1,5.6,2.4,5.6,5.4V25c0,2.9-2.3,5.3-5.3,5.4     c-64,2.8-115,55.5-115,120.1c0,21.5,5.7,41.8,15.6,59.3c3.1,5.5,6.7,10.8,10.6,15.7c1.3,1.6,2.6,3.2,4,4.8     c1.6,1.8,60.6,67.6,60.6,67.6l29.4,32.9l0,0l18.7,21C171.1,353.8,171.1,356.9,169.3,359z"
     id="SVGID_1_" /><path
     d="M240,149.8c0,22.8-8.5,43.6-22.5,59.5l0,0c-2,2.3-5.6,2.4-7.8,0.2l-13.7-13.7c-2-2-2.1-5.2-0.3-7.3     c8.9-10.5,14.2-24,14.2-38.8c0-16.6-6.7-31.6-17.6-42.4c-10.9-10.9-25.9-17.6-42.4-17.6s-31.6,6.7-42.4,17.6     c-9.8,9.8-16.2,22.9-17.4,37.4c-0.2,2.8-2.6,5-5.4,5H65.6c-3.1,0-5.6-2.7-5.4-5.8c3-47,42-84.2,89.8-84.2     c24.9,0,47.4,10.1,63.6,26.4C229.9,102.5,240,125,240,149.8z"
     id="SVGID_4_" /><linearGradient
     inkscape:collect="always"
     xlink:href="#SVGID_3_"
     id="linearGradient959"
     x1="475.43478"
     y1="67.320656"
     x2="18.20236"
     y2="447.12445"
     gradientUnits="userSpaceOnUse" /></defs><sodipodi:namedview
   pagecolor="#ffffff"
   bordercolor="#666666"
   borderopacity="1"
   objecttolerance="10"
   gridtolerance="10"
   guidetolerance="10"
   inkscape:pageopacity="0"
   inkscape:pageshadow="2"
   inkscape:window-width="1366"
   inkscape:window-height="740"
   id="namedview59"
   showgrid="false"
   inkscape:zoom="0.46861938"
   inkscape:cx="249.66957"
   inkscape:cy="251.8035"
   inkscape:window-x="0"
   inkscape:window-y="312"
   inkscape:window-maximized="1"
   inkscape:current-layer="Layer_1" />
<g
   transform="translate(1 1)"
   id="g26"
   style="fill-opacity:1;fill:url(#linearGradient959)">
	<g
   id="g24"
   style="fill-opacity:1.0;fill:url(#linearGradient959)">
		<g
   id="g22"
   style="fill-opacity:1.0;fill:url(#linearGradient959)">
			<path
   d="M469.033,116.401H266.165l59.34-95.685c2.518-4.197,1.679-9.233-2.518-11.751c-4.197-2.518-9.233-1.679-11.751,2.518     l-60.552,97.64l-68.707-98.48c-2.518-3.357-7.554-4.197-11.751-1.679c-3.357,2.518-4.197,7.554-1.679,11.751l66.757,95.685     H32.574C14.108,116.401-1,131.509-1,149.975v285.377c0,18.466,15.108,33.574,33.574,33.574h8.393v16.787     c0,5.036,3.357,8.393,8.393,8.393s8.393-3.357,8.393-8.393v-16.787h386.098v16.787c0,5.036,3.357,8.393,8.393,8.393     c5.036,0,8.393-3.357,8.393-8.393v-16.787h8.393c18.466,0,33.574-15.108,33.574-33.574V149.975     C502.607,131.509,487.498,116.401,469.033,116.401z M485.82,435.352c0,9.233-7.554,16.787-16.787,16.787H32.574     c-9.233,0-16.787-7.554-16.787-16.787V149.975c0-9.233,7.554-16.787,16.787-16.787h436.459c9.233,0,16.787,7.554,16.787,16.787     V435.352z"
   id="path2"
   style="fill-opacity:1.0;fill:url(#linearGradient959)" />
			<path
   d="M317.951,149.975H82.934c-27.698,0-50.361,22.662-50.361,50.361v184.656c0,27.698,22.662,50.361,50.361,50.361h235.016     c27.698,0,50.361-22.662,50.361-50.361V200.335C368.311,172.637,345.649,149.975,317.951,149.975z M351.525,384.991     c0,18.466-15.108,33.574-33.574,33.574H82.934c-18.466,0-33.574-15.108-33.574-33.574V200.335     c0-18.466,15.108-33.574,33.574-33.574h235.016c18.466,0,33.574,15.108,33.574,33.574V384.991z"
   id="path4"
   style="fill-opacity:1.0;fill:url(#linearGradient959)" />
			<path
   d="M460.639,191.942h-67.148c-5.036,0-8.393,3.357-8.393,8.393s3.357,8.393,8.393,8.393h67.148     c5.036,0,8.393-3.357,8.393-8.393S465.675,191.942,460.639,191.942z"
   id="path6"
   style="fill-opacity:1.0;fill:url(#linearGradient959)" />
			<path
   d="M460.639,225.516h-67.148c-5.036,0-8.393,3.357-8.393,8.393s3.357,8.393,8.393,8.393h67.148     c5.036,0,8.393-3.357,8.393-8.393S465.675,225.516,460.639,225.516z"
   id="path8"
   style="fill-opacity:1.0;fill:url(#linearGradient959)" />
			<path
   d="M460.639,259.089h-67.148c-5.036,0-8.393,3.357-8.393,8.393s3.357,8.393,8.393,8.393h67.148     c5.036,0,8.393-3.357,8.393-8.393S465.675,259.089,460.639,259.089z"
   id="path10"
   style="fill-opacity:1.0;fill:url(#linearGradient959)" />
			<path
   d="M460.639,292.663h-67.148c-5.036,0-8.393,3.357-8.393,8.393v67.148c0,5.036,3.357,8.393,8.393,8.393h67.148     c5.036,0,8.393-3.357,8.393-8.393v-67.148C469.033,296.021,465.675,292.663,460.639,292.663z M452.246,359.811h-50.361V309.45     h50.361V359.811z"
   id="path12"
   style="fill-opacity:1.0;fill:url(#linearGradient959)" />
			
			
			
			
		</g>
	</g>
</g>
<g
   id="g28">
</g>
<g
   id="g30">
</g>
<g
   id="g32">
</g>
<g
   id="g34">
</g>
<g
   id="g36">
</g>
<g
   id="g38">
</g>
<g
   id="g40">
</g>
<g
   id="g42">
</g>
<g
   id="g44">
</g>
<g
   id="g46">
</g>
<g
   id="g48">
</g>
<g
   id="g50">
</g>
<g
   id="g52">
</g>
<g
   id="g54">
</g>
<g
   id="g56">
</g>
<style
   id="style65"
   type="text/css">
	.st0{clip-path:url(#SVGID_2_);fill:url(#SVGID_3_);}
	.st1{clip-path:url(#SVGID_5_);fill:url(#SVGID_6_);}
</style><g
   id="g109"
   transform="matrix(0.57593362,0,0,0.57593362,121.73052,184.22423)">
	<g
   id="g86">
		<defs
   id="defs68">
			<path
   d="m 169.3,359 -14.7,17 c -2.2,2.5 -6.1,2.5 -8.2,0 L 38.3,250.3 v 0 l -3,-3.6 C 31,241.5 27,236 23.4,230.3 8.9,207.3 0.5,180 0.5,150.8 v -0.4 c 0,-81 64.2,-147 144.4,-149.9 3.1,-0.1 5.6,2.4 5.6,5.4 V 25 c 0,2.9 -2.3,5.3 -5.3,5.4 -64,2.8 -115,55.5 -115,120.1 0,21.5 5.7,41.8 15.6,59.3 3.1,5.5 6.7,10.8 10.6,15.7 1.3,1.6 2.6,3.2 4,4.8 1.6,1.8 60.6,67.6 60.6,67.6 l 29.4,32.9 v 0 l 18.7,21 c 2,2 2,5.1 0.2,7.2 z"
   id="path121"
   inkscape:connector-curvature="0" />
		</defs>
		<clipPath
   id="SVGID_2_">
			<use
   id="use70"
   style="overflow:visible"
   xlink:href="#SVGID_1_"
   x="0"
   y="0"
   width="100%"
   height="100%" />
		</clipPath>
		<linearGradient
   y2="-6.5409002"
   x2="234.17191"
   y1="387.23019"
   x1="6.8281002"
   gradientUnits="userSpaceOnUse"
   id="SVGID_3_">
			<stop
   id="stop73"
   style="stop-color:#F15A24"
   offset="0" />
			<stop
   id="stop75"
   style="stop-color:#F7931E"
   offset="0.6852" />
			<stop
   id="stop77"
   style="stop-color:#F89C27"
   offset="0.7483" />
			<stop
   id="stop79"
   style="stop-color:#FAAB36"
   offset="0.8857" />
			<stop
   id="stop81"
   style="stop-color:#FBB03B"
   offset="1" />
		</linearGradient>
		<rect
   id="rect84"
   clip-path="url(#SVGID_2_)"
   height="383"
   width="246"
   class="st0"
   y="-1.2"
   x="-2.5"
   style="fill:url(#SVGID_3_)" />
	</g>
	<g
   id="g107">
		<defs
   id="defs89">
			<path
   d="m 240,149.8 c 0,22.8 -8.5,43.6 -22.5,59.5 v 0 c -2,2.3 -5.6,2.4 -7.8,0.2 L 196,195.8 c -2,-2 -2.1,-5.2 -0.3,-7.3 8.9,-10.5 14.2,-24 14.2,-38.8 0,-16.6 -6.7,-31.6 -17.6,-42.4 -10.9,-10.9 -25.9,-17.6 -42.4,-17.6 -16.5,0 -31.6,6.7 -42.4,17.6 -9.8,9.8 -16.2,22.9 -17.4,37.4 -0.2,2.8 -2.6,5 -5.4,5 H 65.6 c -3.1,0 -5.6,-2.7 -5.4,-5.8 3,-47 42,-84.2 89.8,-84.2 24.9,0 47.4,10.1 63.6,26.4 16.3,16.4 26.4,38.9 26.4,63.7 z"
   id="path134"
   inkscape:connector-curvature="0" />
		</defs>
		<clipPath
   id="SVGID_5_">
			<use
   id="use91"
   style="overflow:visible"
   xlink:href="#SVGID_4_"
   x="0"
   y="0"
   width="100%"
   height="100%" />
		</clipPath>
		<linearGradient
   y2="-6.5409002"
   x2="234.17191"
   y1="387.23019"
   x1="6.8281002"
   gradientUnits="userSpaceOnUse"
   id="SVGID_6_">
			<stop
   id="stop94"
   style="stop-color:#F15A24"
   offset="0" />
			<stop
   id="stop96"
   style="stop-color:#F7931E"
   offset="0.6852" />
			<stop
   id="stop98"
   style="stop-color:#F89C27"
   offset="0.7483" />
			<stop
   id="stop100"
   style="stop-color:#FAAB36"
   offset="0.8857" />
			<stop
   id="stop102"
   style="stop-color:#FBB03B"
   offset="1" />
		</linearGradient>
		<rect
   id="rect105"
   clip-path="url(#SVGID_5_)"
   height="383"
   width="246"
   class="st1"
   y="-1.2"
   x="-2.5"
   style="fill:url(#SVGID_6_)" />
	</g>
</g></svg>