<?xml version="1.0" encoding="utf-8"?>
<!-- Generator: Adobe Illustrator 22.0.1, SVG Export Plug-In . SVG Version: 6.00 Build 0)  -->
<svg version="1.1" id="Capa_1" xmlns="http://www.w3.org/2000/svg" xmlns:xlink="http://www.w3.org/1999/xlink" x="0px" y="0px"
	 viewBox="0 0 240.5 378.4" style="enable-background:new 0 0 240.5 378.4;" xml:space="preserve">
<style type="text/css">
	.st0{clip-path:url(#SVGID_2_);fill:url(#SVGID_3_);}
	.st1{clip-path:url(#SVGID_5_);fill:url(#SVGID_6_);}
</style>
<g>
	<g>
		<defs>
			<path id="SVGID_1_" d="M169.3,359L154.6,376c-2.2,2.5-6.1,2.5-8.2,0L38.3,250.3l0,0l-3-3.6c-4.3-5.2-8.3-10.7-11.9-16.4
				C8.9,207.3,0.5,180,0.5,150.8v-0.4c0-81,64.2-147,144.4-149.9c3.1-0.1,5.6,2.4,5.6,5.4V25c0,2.9-2.3,5.3-5.3,5.4
				c-64,2.8-115,55.5-115,120.1c0,21.5,5.7,41.8,15.6,59.3c3.1,5.5,6.7,10.8,10.6,15.7c1.3,1.6,2.6,3.2,4,4.8
				c1.6,1.8,60.6,67.6,60.6,67.6l29.4,32.9l0,0l18.7,21C171.1,353.8,171.1,356.9,169.3,359z"/>
		</defs>
		<clipPath id="SVGID_2_">
			<use xlink:href="#SVGID_1_"  style="overflow:visible;"/>
		</clipPath>
		<linearGradient id="SVGID_3_" gradientUnits="userSpaceOnUse" x1="6.8281" y1="387.2302" x2="234.1719" y2="-6.5409">
			<stop  offset="0" style="stop-color:#F15A24"/>
			<stop  offset="0.6852" style="stop-color:#F7931E"/>
			<stop  offset="0.7483" style="stop-color:#F89C27"/>
			<stop  offset="0.8857" style="stop-color:#FAAB36"/>
			<stop  offset="1" style="stop-color:#FBB03B"/>
		</linearGradient>
		<rect x="-2.5" y="-1.2" class="st0" width="246" height="383"/>
	</g>
	<g>
		<defs>
			<path id="SVGID_4_" d="M240,149.8c0,22.8-8.5,43.6-22.5,59.5l0,0c-2,2.3-5.6,2.4-7.8,0.2l-13.7-13.7c-2-2-2.1-5.2-0.3-7.3
				c8.9-10.5,14.2-24,14.2-38.8c0-16.6-6.7-31.6-17.6-42.4c-10.9-10.9-25.9-17.6-42.4-17.6s-31.6,6.7-42.4,17.6
				c-9.8,9.8-16.2,22.9-17.4,37.4c-0.2,2.8-2.6,5-5.4,5H65.6c-3.1,0-5.6-2.7-5.4-5.8c3-47,42-84.2,89.8-84.2
				c24.9,0,47.4,10.1,63.6,26.4C229.9,102.5,240,125,240,149.8z"/>
		</defs>
		<clipPath id="SVGID_5_">
			<use xlink:href="#SVGID_4_"  style="overflow:visible;"/>
		</clipPath>
		<linearGradient id="SVGID_6_" gradientUnits="userSpaceOnUse" x1="6.8281" y1="387.2302" x2="234.1719" y2="-6.5409">
			<stop  offset="0" style="stop-color:#F15A24"/>
			<stop  offset="0.6852" style="stop-color:#F7931E"/>
			<stop  offset="0.7483" style="stop-color:#F89C27"/>
			<stop  offset="0.8857" style="stop-color:#FAAB36"/>
			<stop  offset="1" style="stop-color:#FBB03B"/>
		</linearGradient>
		<rect x="-2.5" y="-1.2" class="st1" width="246" height="383"/>
	</g>
</g>
</svg>
