<?xml version="1.0" encoding="UTF-8" standalone="no"?>
<!-- Created with Inkscape (http://www.inkscape.org/) -->

<svg
   xmlns:dc="http://purl.org/dc/elements/1.1/"
   xmlns:cc="http://creativecommons.org/ns#"
   xmlns:rdf="http://www.w3.org/1999/02/22-rdf-syntax-ns#"
   xmlns:svg="http://www.w3.org/2000/svg"
   xmlns="http://www.w3.org/2000/svg"
   xmlns:sodipodi="http://sodipodi.sourceforge.net/DTD/sodipodi-0.dtd"
   xmlns:inkscape="http://www.inkscape.org/namespaces/inkscape"
   width="103.19836mm"
   height="97.16674mm"
   viewBox="0 0 103.19836 97.16674"
   version="1.1"
   id="svg107446"
   inkscape:export-filename="/home/zaqueo/dev/creating-networks-front/src/assets/img/logo-book.svg.png"
   inkscape:export-xdpi="100"
   inkscape:export-ydpi="100"
   inkscape:version="0.92.3 (2405546, 2018-03-11)"
   sodipodi:docname="youngatlasbook-logo.svg">
  <defs
     id="defs107440">
    <clipPath
       clipPathUnits="userSpaceOnUse"
       id="clipPath102892">
      <path
         d="m 346.479,76.72 c -0.015,-0.248 0.184,-0.462 0.43,-0.462 v 0 h 1.518 c 0.222,0 0.413,0.174 0.429,0.397 v 0 c 0.095,1.154 0.604,2.193 1.384,2.973 v 0 c 0.857,0.866 2.058,1.398 3.369,1.398 v 0 c 1.311,0 2.503,-0.532 3.37,-1.398 v 0 c 0.866,-0.859 1.399,-2.051 1.399,-3.37 v 0 c 0,-1.175 -0.422,-2.249 -1.129,-3.084 v 0 c -0.142,-0.166 -0.134,-0.422 0.024,-0.581 v 0 l 1.089,-1.088 c 0.176,-0.176 0.461,-0.166 0.619,0.016 v 0 c 1.113,1.264 1.789,2.917 1.789,4.729 v 0 c 0,1.973 -0.801,3.759 -2.098,5.062 v 0 c -1.287,1.296 -3.077,2.099 -5.055,2.099 v 0 c -3.799,0 -6.899,-2.956 -7.138,-6.691"
         id="path102890"
         inkscape:connector-curvature="0" />
    </clipPath>
    <clipPath
       clipPathUnits="userSpaceOnUse"
       id="clipPath102880">
      <path
         d="M 0,0 H 453.543 V 651.968 H 0 Z"
         id="path102878"
         inkscape:connector-curvature="0" />
    </clipPath>
    <clipPath
       clipPathUnits="userSpaceOnUse"
       id="clipPath102870">
      <path
         d="m 353.225,88.116 h -0.013 c -6.375,-0.23 -11.477,-5.474 -11.477,-11.914 v 0 -0.03 c 0,-2.322 0.667,-4.492 1.819,-6.318 v 0 c 0.286,-0.455 0.605,-0.891 0.947,-1.305 v 0 l 0.239,-0.287 8.591,-9.99 c 0.166,-0.199 0.476,-0.199 0.652,0 v 0 l 1.168,1.351 c 0.143,0.168 0.143,0.413 -0.016,0.573 v 0 l -1.486,1.668 -2.337,2.616 c 0,0 -4.689,5.23 -4.816,5.374 v 0 c -0.111,0.126 -0.215,0.252 -0.318,0.379 v 0 c -0.31,0.39 -0.596,0.81 -0.843,1.249 v 0 c -0.786,1.39 -1.24,3.003 -1.24,4.712 v 0 c 0,5.135 4.053,9.323 9.141,9.546 v 0 c 0.237,0.007 0.42,0.198 0.42,0.43 v 0 1.517 c 0,0.233 -0.19,0.429 -0.43,0.429 v 0 c 0,0 -10e-4,0 -10e-4,0"
         id="path102868"
         inkscape:connector-curvature="0" />
    </clipPath>
  </defs>
  <sodipodi:namedview
     id="base"
     pagecolor="#ffffff"
     bordercolor="#666666"
     borderopacity="1.0"
     inkscape:pageopacity="0.0"
     inkscape:pageshadow="2"
     inkscape:zoom="1.979899"
     inkscape:cx="227.33621"
     inkscape:cy="85.072027"
     inkscape:document-units="mm"
     inkscape:current-layer="layer1"
     showgrid="false"
     fit-margin-top="0"
     fit-margin-left="0"
     fit-margin-right="0"
     fit-margin-bottom="0"
     inkscape:window-width="1366"
     inkscape:window-height="740"
     inkscape:window-x="0"
     inkscape:window-y="0"
     inkscape:window-maximized="1" />
  <metadata
     id="metadata107443">
    <rdf:RDF>
      <cc:Work
         rdf:about="">
        <dc:format>image/svg+xml</dc:format>
        <dc:type
           rdf:resource="http://purl.org/dc/dcmitype/StillImage" />
        <dc:title />
      </cc:Work>
    </rdf:RDF>
  </metadata>
  <g
     inkscape:label="Layer 1"
     inkscape:groupmode="layer"
     id="layer1"
     transform="translate(-48.186534,-16.243733)">
    <path
       d="M 151.38489,74.291975 H 59.795674 V 17.369522 h 91.589216 z"
       style="fill:#000000;fill-opacity:1;fill-rule:nonzero;stroke:none;stroke-width:0.35277775"
       id="path102676"
       inkscape:connector-curvature="0" />
    <path
       d="M 150.61266,73.519395 H 59.023444 V 16.596939 h 91.589216 z"
       style="fill:#ffffff;fill-opacity:1;fill-rule:nonzero;stroke:none;stroke-width:0.35277775"
       id="path102682"
       inkscape:connector-curvature="0" />
    <g
       id="g102684"
       transform="matrix(0.35277777,0,0,-0.35277777,150.6127,73.519325)">
      <path
         d="M 0,0 H -259.623 V 161.355 H 0 Z"
         style="fill:none;stroke:#000000;stroke-width:2;stroke-linecap:butt;stroke-linejoin:miter;stroke-miterlimit:10;stroke-dasharray:none;stroke-opacity:1"
         id="path102686"
         inkscape:connector-curvature="0" />
    </g>
    <g
       id="g102688"
       transform="matrix(0.35277777,0,0,-0.35277777,74.265984,35.280155)">
      <path
         d="m 0,0 v -19.583 h -3.862 v 19.528 l -12.076,19.094 h 4.515 l 9.52,-15.122 9.519,15.122 h 4.678 z"
         style="fill:#000000;fill-opacity:1;fill-rule:nonzero;stroke:none"
         id="path102690"
         inkscape:connector-curvature="0" />
    </g>
    <g
       id="g102692"
       transform="matrix(0.35277777,0,0,-0.35277777,85.781532,32.785235)">
      <path
         d="m 0,0 v -14.688 c 0,-5.331 3.264,-9.084 8.704,-9.084 5.44,0 8.703,3.753 8.703,9.084 V 0 c 0,5.439 -3.209,9.029 -8.703,9.029 C 3.264,9.029 0,5.385 0,0 m 21.324,0 v -14.742 c 0,-7.289 -4.787,-12.675 -12.62,-12.675 -7.725,0 -12.566,5.386 -12.566,12.675 V 0 c 0,7.343 4.841,12.729 12.566,12.729 7.833,0 12.62,-5.386 12.62,-12.729"
         style="fill:#000000;fill-opacity:1;fill-rule:nonzero;stroke:none"
         id="path102694"
         inkscape:connector-curvature="0" />
    </g>
    <g
       id="g102696"
       transform="matrix(0.35277777,0,0,-0.35277777,109.3684,28.563615)">
      <path
         d="m 0,0 v -26.872 c 0,-7.399 -4.679,-12.512 -12.022,-12.512 -7.398,0 -12.077,5.168 -12.077,12.512 V 0 h 3.863 v -26.872 c 0,-5.276 3.155,-8.867 8.214,-8.867 5.004,0 8.16,3.591 8.16,8.867 V 0 Z"
         style="fill:#000000;fill-opacity:1;fill-rule:nonzero;stroke:none"
         id="path102698"
         inkscape:connector-curvature="0" />
    </g>
    <g
       id="g102700"
       transform="matrix(0.35277777,0,0,-0.35277777,124.66427,29.868615)">
      <path
         d="M 0,0 H -10.228 V -34.923 H -14.09 V 0 H -24.262 V 3.699 H 0 Z"
         style="fill:#000000;fill-opacity:1;fill-rule:nonzero;stroke:none"
         id="path102702"
         inkscape:connector-curvature="0" />
    </g>
    <g
       id="g102704"
       transform="matrix(0.35277777,0,0,-0.35277777,139.94117,28.563615)">
      <path
         d="m 0,0 v -38.622 h -3.862 v 17.951 h -16.265 v -17.951 h -3.862 V 0 h 3.862 V -16.972 H -3.862 V 0 Z"
         style="fill:#000000;fill-opacity:1;fill-rule:nonzero;stroke:none"
         id="path102706"
         inkscape:connector-curvature="0" />
    </g>
    <g
       id="g102708"
       transform="matrix(0.35277777,0,0,-0.35277777,72.578929,58.081205)">
      <path
         d="M 0,0 H 8.214 L 4.079,14.579 Z M 12.293,-14.415 9.954,-6.256 H -1.741 l -2.284,-8.159 h -7.018 L 0.87,24.207 h 6.582 l 11.804,-38.622 z"
         style="fill:#000000;fill-opacity:1;fill-rule:nonzero;stroke:none"
         id="path102710"
         inkscape:connector-curvature="0" />
    </g>
    <g
       id="g102712"
       transform="matrix(0.35277777,0,0,-0.35277777,93.339759,51.748425)">
      <path
         d="m 0,0 h -9.303 v -32.366 h -6.636 V 0 h -9.302 V 6.256 H 0 Z"
         style="fill:#000000;fill-opacity:1;fill-rule:nonzero;stroke:none"
         id="path102714"
         inkscape:connector-curvature="0" />
    </g>
    <g
       id="g102716"
       transform="matrix(0.35277777,0,0,-0.35277777,103.02771,60.959555)">
      <path
         d="M 0,0 H 13.763 V -6.256 H -6.636 V 32.366 H 0 Z"
         style="fill:#000000;fill-opacity:1;fill-rule:nonzero;stroke:none"
         id="path102718"
         inkscape:connector-curvature="0" />
    </g>
    <g
       id="g102720"
       transform="matrix(0.35277777,0,0,-0.35277777,117.83958,58.081205)">
      <path
         d="M 0,0 H 8.214 L 4.079,14.579 Z M 12.293,-14.415 9.954,-6.256 H -1.741 l -2.284,-8.159 h -7.018 L 0.87,24.207 h 6.582 l 11.804,-38.622 z"
         style="fill:#000000;fill-opacity:1;fill-rule:nonzero;stroke:none"
         id="path102722"
         inkscape:connector-curvature="0" />
    </g>
    <g
       id="g102724"
       transform="matrix(0.35277777,0,0,-0.35277777,137.37218,53.513655)">
      <path
         d="m 0,0 c 0,3.808 -2.829,5.875 -5.657,5.875 -2.666,0 -5.114,-1.523 -5.114,-4.353 0,-2.773 2.23,-4.242 5.332,-5.384 l 3.481,-1.306 c 5.494,-2.176 9.302,-5.386 9.302,-11.532 0,-7.399 -6.365,-11.532 -12.73,-11.532 -6.636,0 -12.891,4.406 -12.891,12.565 v 0.816 h 6.635 v -0.761 c 0,-3.863 2.557,-6.365 6.256,-6.365 3.428,0 6.093,1.741 6.093,5.004 0,3.101 -2.611,4.624 -5.603,5.767 L -8.432,-9.9 c -5.929,2.338 -8.975,5.494 -8.975,11.096 0,6.365 4.895,10.934 11.75,10.934 6.908,0 12.131,-5.059 12.131,-11.804 V -0.816 H 0 Z"
         style="fill:#000000;fill-opacity:1;fill-rule:nonzero;stroke:none"
         id="path102726"
         inkscape:connector-curvature="0" />
    </g>
    <path
       d="m 48.539241,44.596905 h 8.000294 v -7.99994 h -8.000294 z"
       style="fill:#ffffff;fill-opacity:1;fill-rule:nonzero;stroke:none;stroke-width:0.35277775"
       id="path102728"
       inkscape:connector-curvature="0" />
    <g
       id="g102730"
       transform="matrix(0.35277777,0,0,-0.35277777,48.539312,44.596835)">
      <path
         d="M 0,0 H 22.678 V 22.677 H 0 Z"
         style="fill:none;stroke:#000000;stroke-width:2;stroke-linecap:butt;stroke-linejoin:miter;stroke-miterlimit:10;stroke-dasharray:none;stroke-opacity:1"
         id="path102732"
         inkscape:connector-curvature="0" />
    </g>
    <g
       id="g102734"
       transform="matrix(0.35277777,0,0,-0.35277777,51.627599,41.170585)">
      <path
         d="m 0,0 -1.937,-1.951 -1.552,1.553 v -4.05 h 4.05 l -1.553,1.552 1.95,1.937 z"
         style="fill:#000000;fill-opacity:1;fill-rule:nonzero;stroke:none"
         id="path102736"
         inkscape:connector-curvature="0" />
    </g>
    <g
       id="g102738"
       transform="matrix(0.35277777,0,0,-0.35277777,51.825331,38.454135)">
      <path
         d="m 0,0 h -4.05 v -4.049 l 1.552,1.552 1.937,-1.95 0.958,0.958 -1.95,1.937 z"
         style="fill:#000000;fill-opacity:1;fill-rule:nonzero;stroke:none"
         id="path102740"
         inkscape:connector-curvature="0" />
    </g>
    <g
       id="g102742"
       transform="matrix(0.35277777,0,0,-0.35277777,53.451389,41.170585)">
      <path
         d="m 0,0 -0.959,-0.959 1.951,-1.937 -1.553,-1.552 h 4.05 v 4.05 L 1.937,-1.951 Z"
         style="fill:#000000;fill-opacity:1;fill-rule:nonzero;stroke:none"
         id="path102744"
         inkscape:connector-curvature="0" />
    </g>
    <g
       id="g102746"
       transform="matrix(0.35277777,0,0,-0.35277777,53.253658,38.454135)">
      <path
         d="m 0,0 1.553,-1.552 -1.951,-1.937 0.959,-0.958 1.936,1.95 1.553,-1.552 V 0 Z"
         style="fill:#000000;fill-opacity:1;fill-rule:nonzero;stroke:none"
         id="path102748"
         inkscape:connector-curvature="0" />
    </g>
    <path
       d="m 48.539241,24.596875 h 8.000294 v -8.000289 h -8.000294 z"
       style="fill:#ffffff;fill-opacity:1;fill-rule:nonzero;stroke:none;stroke-width:0.35277775"
       id="path102750"
       inkscape:connector-curvature="0" />
    <g
       id="g102752"
       transform="matrix(0.35277777,0,0,-0.35277777,48.539312,24.596805)">
      <path
         d="M 0,0 H 22.678 V 22.678 H 0 Z"
         style="fill:none;stroke:#000000;stroke-width:2;stroke-linecap:butt;stroke-linejoin:miter;stroke-miterlimit:10;stroke-dasharray:none;stroke-opacity:1"
         id="path102754"
         inkscape:connector-curvature="0" />
    </g>
    <g
       id="g102756"
       transform="matrix(0.35277777,0,0,-0.35277777,52.539494,22.263575)">
      <path
         d="m 0,0 c -2.612,0 -4.725,2.112 -4.725,4.725 0,2.611 2.113,4.724 4.725,4.724 2.611,0 4.725,-2.113 4.725,-4.724 C 4.725,2.112 2.611,0 0,0 m 6.033,5.399 c -0.31,2.815 -2.544,5.049 -5.358,5.359 v 1.39 h -1.35 v -1.39 C -3.489,10.448 -5.724,8.214 -6.034,5.399 h -1.39 V 4.05 h 1.39 c 0.31,-2.815 2.545,-5.049 5.359,-5.36 v -1.389 h 1.35 v 1.389 c 2.814,0.311 5.048,2.545 5.358,5.36 h 1.391 v 1.349 z"
         style="fill:#000000;fill-opacity:1;fill-rule:nonzero;stroke:none"
         id="path102758"
         inkscape:connector-curvature="0" />
    </g>
    <g
       id="g102760"
       transform="matrix(0.35277777,0,0,-0.35277777,52.539494,19.644621)">
      <path
         d="m 0,0 c -1.492,0 -2.7,-1.208 -2.7,-2.699 0,-1.491 1.208,-2.7 2.7,-2.7 1.491,0 2.699,1.209 2.699,2.7 C 2.699,-1.208 1.491,0 0,0"
         style="fill:#000000;fill-opacity:1;fill-rule:nonzero;stroke:none"
         id="path102762"
         inkscape:connector-curvature="0" />
    </g>
    <path
       d="m 48.539241,34.597075 h 8.000294 v -8.0003 h -8.000294 z"
       style="fill:#ffffff;fill-opacity:1;fill-rule:nonzero;stroke:none;stroke-width:0.35277775"
       id="path102764"
       inkscape:connector-curvature="0" />
    <g
       id="g102766"
       transform="matrix(0.35277777,0,0,-0.35277777,48.539312,34.596965)">
      <path
         d="M 0,0 H 22.678 V 22.678 H 0 Z"
         style="fill:none;stroke:#000000;stroke-width:2;stroke-linecap:butt;stroke-linejoin:miter;stroke-miterlimit:10;stroke-dasharray:none;stroke-opacity:1"
         id="path102768"
         inkscape:connector-curvature="0" />
    </g>
    <g
       id="g102770"
       transform="matrix(0.35277777,0,0,-0.35277777,52.887121,32.739765)">
      <path
         d="M 0,0 H -0.661 L -2.443,4.616 -7.06,6.405 v 0.661 l 12.149,5.082 z"
         style="fill:#000000;fill-opacity:1;fill-rule:nonzero;stroke:none"
         id="path102772"
         inkscape:connector-curvature="0" />
    </g>
    <path
       d="M 151.12198,113.18883 H 91.282755 V 93.660803 h 59.839225 z"
       style="fill:#000000;fill-opacity:1;fill-rule:nonzero;stroke:none;stroke-width:0.35277775"
       id="path102774"
       inkscape:connector-curvature="0" />
    <g
       id="g102776"
       transform="matrix(0.35277777,0,0,-0.35277777,151.12205,113.18875)">
      <path
         d="M 0,0 H -169.623 V 55.355 H 0 Z"
         style="fill:none;stroke:#000000;stroke-width:1.25699997;stroke-linecap:butt;stroke-linejoin:miter;stroke-miterlimit:10;stroke-dasharray:none;stroke-opacity:1"
         id="path102778"
         inkscape:connector-curvature="0" />
    </g>
    <path
       d="M 149.99697,112.06417 H 90.157747 V 92.536153 h 59.839223 z"
       style="fill:#ffffff;fill-opacity:1;fill-rule:nonzero;stroke:none;stroke-width:0.35277775"
       id="path102780"
       inkscape:connector-curvature="0" />
    <g
       id="g102782"
       transform="matrix(0.35277777,0,0,-0.35277777,149.99704,112.0641)">
      <path
         d="M 0,0 H -169.623 V 55.355 H 0 Z"
         style="fill:none;stroke:#000000;stroke-width:2;stroke-linecap:butt;stroke-linejoin:miter;stroke-miterlimit:10;stroke-dasharray:none;stroke-opacity:1"
         id="path102784"
         inkscape:connector-curvature="0" />
    </g>
    <g
       id="g102786"
       transform="matrix(0.35277777,0,0,-0.35277777,95.436853,104.12512)">
      <path
         d="M 0,0 C -0.112,0 -0.227,0.018 -0.338,0.055 -0.91,0.241 -1.224,0.856 -1.036,1.429 l 5.67,17.377 c 0.187,0.573 0.803,0.885 1.375,0.698 0.572,-0.187 0.886,-0.802 0.698,-1.375 L 2.094,1.44 C 1.943,0.979 0.459,0 0,0"
         style="fill:#000000;fill-opacity:1;fill-rule:nonzero;stroke:none"
         id="path102788"
         inkscape:connector-curvature="0" />
    </g>
    <g
       id="g102790"
       transform="matrix(0.35277777,0,0,-0.35277777,101.99327,103.55944)">
      <path
         d="m 0,0 c -0.318,0 -0.852,0.208 -1.067,0.475 l -12.695,15.868 c -0.379,0.468 -0.305,1.154 0.162,1.533 0.469,0.378 1.156,0.306 1.534,-0.163 L 1.034,2.627 C 1.412,2.158 0.959,0.822 0.49,0.444 0.289,0.281 0.241,0 0,0"
         style="fill:#000000;fill-opacity:1;fill-rule:nonzero;stroke:none"
         id="path102792"
         inkscape:connector-curvature="0" />
    </g>
    <g
       id="g102794"
       transform="matrix(0.35277777,0,0,-0.35277777,102.06044,98.737347)">
      <path
         d="m 0,0 c -0.363,0.48 -0.884,0.448 -1.364,0.085 l -14.415,-10.651 c 0,0 -2.32,-1.908 -3.318,-1.087 l -0.746,-2.305 c -0.061,-0.298 -0.189,-0.778 0.145,-1.19 0.309,-0.382 0.905,-0.537 1.235,-0.537 0.23,0 0.46,0.072 0.656,0.22 L -0.213,-1.526 C 0.268,-1.164 0.362,-0.48 0,0"
         style="fill:#000000;fill-opacity:1;fill-rule:nonzero;stroke:none"
         id="path102796"
         inkscape:connector-curvature="0" />
    </g>
    <g
       id="g102798"
       transform="matrix(0.35277777,0,0,-0.35277777,102.22028,98.964327)">
      <path
         d="M 0,0 C -0.024,0.602 -0.768,1.103 -1.368,1.076 -1.97,1.052 -2.438,0.544 -2.413,-0.058 l 0.305,-7.463 c 0,0 0.164,-3.286 -1.036,-3.258 l 1.433,-1.772 c 0.199,-0.265 0.711,-0.637 1.066,-0.637 H -0.6 c 1.121,0 1.6,0.734 1.576,1.335 z"
         style="fill:#000000;fill-opacity:1;fill-rule:nonzero;stroke:none"
         id="path102800"
         inkscape:connector-curvature="0" />
    </g>
    <g
       id="g102802"
       transform="matrix(0.35277777,0,0,-0.35277777,97.059879,98.634307)">
      <path
         d="M 0,0 C 0.164,-0.065 0.331,-0.115 0.5,-0.149 V -0.15 c 0.523,-0.107 1.062,-0.062 1.557,0.122 l -10e-4,0.003 c 0.252,0.092 0.49,0.221 0.709,0.383 0.023,0.017 0.047,0.033 0.069,0.05 0.025,0.021 0.05,0.043 0.074,0.064 0.049,0.042 0.097,0.084 0.144,0.129 L 3.084,0.633 C 3.212,0.763 3.329,0.905 3.433,1.062 4.296,2.368 3.937,4.126 2.631,4.989 1.406,5.798 -0.215,5.532 -1.123,4.421 -1.185,4.347 -1.242,4.269 -1.296,4.187 -1.358,4.093 -1.412,3.995 -1.462,3.897 -1.477,3.867 -1.489,3.837 -1.503,3.807 -1.536,3.735 -1.566,3.663 -1.593,3.59 -1.604,3.558 -1.616,3.525 -1.626,3.493 -1.652,3.413 -1.674,3.333 -1.692,3.251 -1.697,3.229 -1.704,3.207 -1.709,3.184 -1.752,2.968 -1.77,2.75 -1.762,2.532 l 0.003,-0.05 C -1.754,2.389 -1.744,2.294 -1.729,2.201 -1.728,2.185 -1.726,2.168 -1.723,2.152 -1.686,1.935 -1.624,1.72 -1.537,1.516 L -1.538,1.515 C -1.328,1.021 -0.976,0.579 -0.493,0.261 -0.335,0.155 -0.169,0.07 0,0"
         style="fill:#000000;fill-opacity:1;fill-rule:nonzero;stroke:none"
         id="path102804"
         inkscape:connector-curvature="0" />
    </g>
    <g
       id="g102806"
       transform="matrix(0.35277777,0,0,-0.35277777,102.56516,99.482877)">
      <path
         d="M 0,0 C 0.09,0.15 0.166,0.309 0.227,0.47 H 0.228 C 0.415,0.969 0.455,1.509 0.352,2.025 H 0.35 C 0.297,2.288 0.207,2.544 0.083,2.786 0.069,2.812 0.058,2.837 0.043,2.861 0.027,2.89 0.01,2.918 -0.007,2.945 -0.04,3 -0.074,3.055 -0.112,3.107 -0.121,3.119 -0.13,3.132 -0.139,3.144 -0.246,3.291 -0.369,3.429 -0.508,3.557 -1.661,4.614 -3.454,4.537 -4.512,3.384 -5.503,2.303 -5.497,0.66 -4.542,-0.413 c 0.063,-0.071 0.131,-0.141 0.203,-0.207 0.083,-0.076 0.171,-0.145 0.26,-0.209 0.027,-0.021 0.055,-0.037 0.082,-0.056 0.065,-0.044 0.133,-0.085 0.201,-0.123 0.029,-0.016 0.06,-0.033 0.09,-0.048 0.075,-0.038 0.151,-0.072 0.228,-0.103 0.022,-0.009 0.043,-0.019 0.065,-0.027 0.206,-0.077 0.419,-0.128 0.635,-0.155 0.016,-0.002 0.032,-0.003 0.049,-0.005 0.094,-0.009 0.189,-0.015 0.283,-0.016 h 0.049 c 0.221,0.002 0.443,0.029 0.658,0.082 h 0.001 c 0.521,0.129 1.012,0.407 1.403,0.833 0.128,0.14 0.239,0.29 0.335,0.447"
         style="fill:#000000;fill-opacity:1;fill-rule:nonzero;stroke:none"
         id="path102808"
         inkscape:connector-curvature="0" />
    </g>
    <g
       id="g102810"
       transform="matrix(0.35277777,0,0,-0.35277777,100.73992,106.18181)">
      <path
         d="M 0,0 V -2.71 H 4.297 V 1.019 L 1.692,3.198 V 4.337 H 2.763 V 3.409 H 4.248 V 6 H 0.054 V 2.512 l 2.6,-2.187 V -1.06 H 1.638 V 0 Z"
         style="fill:#000000;fill-opacity:1;fill-rule:nonzero;stroke:none"
         id="path102812"
         inkscape:connector-curvature="0" />
    </g>
    <path
       d="M 99.399466,104.64984 H 99.8228 v 0.63535 h -0.423334 z m 0.517172,1.9057 h -0.516819 v -0.69708 h 0.516819 z m 0.579262,0.58244 v -1.27917 l -0.37183,-0.29951 0.27059,-0.24236 v -0.84596 l -0.39018,-0.40569 h -1.182511 v 3.07269 h 0.381352 z"
       style="fill:#000000;fill-opacity:1;fill-rule:nonzero;stroke:none;stroke-width:0.35277775"
       id="path102814"
       inkscape:connector-curvature="0" />
    <path
       d="m 114.46626,105.451 h -0.44415 v -0.80116 h 0.44415 z m 0.57714,0.56691 v -1.95262 h -1.59949 v 0.43356 2.63913 h 0.57785 v -1.1116 h 0.15275 l 0.3429,1.1116 h 0.57961 l -0.36583,-1.12007 z"
       style="fill:#000000;fill-opacity:1;fill-rule:nonzero;stroke:none;stroke-width:0.35277775"
       id="path102816"
       inkscape:connector-curvature="0" />
    <g
       id="g102818"
       transform="matrix(0.35277777,0,0,-0.35277777,115.32301,103.46849)">
      <path
         d="M 0,0 V 5.24 H 2.115 V 0 H 4.58 V 13.111 H 2.115 V 7.726 H 0 v 5.385 H -2.466 V 0 Z"
         style="fill:#000000;fill-opacity:1;fill-rule:nonzero;stroke:none"
         id="path102820"
         inkscape:connector-curvature="0" />
    </g>
    <g
       id="g102822"
       transform="matrix(0.35277777,0,0,-0.35277777,112.44117,99.722657)">
      <path
         d="M 0,0 V -10.618 H 2.481 V 0 H 4.703 V 2.493 H -2.303 V 0 Z"
         style="fill:#000000;fill-opacity:1;fill-rule:nonzero;stroke:none"
         id="path102824"
         inkscape:connector-curvature="0" />
    </g>
    <g
       id="g102826"
       transform="matrix(0.35277777,0,0,-0.35277777,103.84398,104.64984)">
      <path
         d="m 0,0 v 1.657 h -3.793 v -8.71 h 3.848 v 1.651 H -2.15 v 2.095 h 2.043 v 1.626 H -2.173 V 0 Z"
         style="fill:#000000;fill-opacity:1;fill-rule:nonzero;stroke:none"
         id="path102828"
         inkscape:connector-curvature="0" />
    </g>
    <g
       id="g102830"
       transform="matrix(0.35277777,0,0,-0.35277777,116.07887,105.0174)">
      <path
         d="m 0,0 -0.757,2.699 h -1.691 l 1.637,-5.38 -1.01,-3.33 h 1.708 l 2.637,8.71 H 0.822 Z"
         style="fill:#000000;fill-opacity:1;fill-rule:nonzero;stroke:none"
         id="path102832"
         inkscape:connector-curvature="0" />
    </g>
    <path
       d="m 106.77217,99.722587 h 0.76341 v 2.869503 h -0.76341 z m 1.63336,-0.87947 h -2.50613 v 4.625273 h 2.50613 z"
       style="fill:#000000;fill-opacity:1;fill-rule:nonzero;stroke:none;stroke-width:0.35277775"
       id="path102834"
       inkscape:connector-curvature="0" />
    <path
       d="m 97.99987,106.56156 h -0.506941 v -1.9057 h 0.506941 z m -1.086908,0.58279 h 1.664406 v -3.07304 h -1.664406 z"
       style="fill:#000000;fill-opacity:1;fill-rule:nonzero;stroke:none;stroke-width:0.35277775"
       id="path102836"
       inkscape:connector-curvature="0" />
    <g
       id="g102838"
       transform="matrix(0.35277777,0,0,-0.35277777,103.26761,103.46849)">
      <path
         d="M 0,0 H 2.571 L 6.542,13.111 H 3.979 L 2.742,9.049 1.604,13.111 H -0.943 L 1.521,5.015 Z"
         style="fill:#000000;fill-opacity:1;fill-rule:nonzero;stroke:none"
         id="path102840"
         inkscape:connector-curvature="0" />
    </g>
    <path
       d="m 112.61311,106.55554 h -0.50729 v -1.9057 h 0.50729 z m -1.08726,0.58279 h 1.66441 v -3.07304 h -1.66441 z"
       style="fill:#000000;fill-opacity:1;fill-rule:nonzero;stroke:none;stroke-width:0.35277775"
       id="path102842"
       inkscape:connector-curvature="0" />
    <path
       d="m 108.32263,104.64984 h 0.49213 v 0.89429 h -0.49213 z m 1.06998,2.48814 v -3.07269 h -1.20509 l -0.4445,0.48683 v 2.58586 h 0.57961 v -1.0093 h 0.49177 v 1.0093 z"
       style="fill:#000000;fill-opacity:1;fill-rule:nonzero;stroke:none;stroke-width:0.35277775"
       id="path102844"
       inkscape:connector-curvature="0" />
    <g
       id="g102846"
       transform="matrix(0.35277777,0,0,-0.35277777,111.24158,103.46849)">
      <path
         d="M 0,0 V 13.111 H -2.475 V 2.484 H -4.491 V 13.111 H -6.957 V 0 Z"
         style="fill:#000000;fill-opacity:1;fill-rule:nonzero;stroke:none"
         id="path102848"
         inkscape:connector-curvature="0" />
    </g>
    <g
       id="g102850"
       transform="matrix(0.35277777,0,0,-0.35277777,107.51438,104.06515)">
      <path
         d="M 0,0 H -1.681 L -2.335,-6.691 -2.983,0 h -1.708 l 1.059,-8.71 h 2.595 z"
         style="fill:#000000;fill-opacity:1;fill-rule:nonzero;stroke:none"
         id="path102852"
         inkscape:connector-curvature="0" />
    </g>
    <path
       d="m 105.09683,105.451 h -0.44415 v -0.80116 h 0.44415 z m 0.5775,-1.38571 h -1.5995 v 0.43356 2.63913 h 0.5775 v -1.1116 h 0.15275 l 0.34361,1.1116 h 0.57891 l -0.36583,-1.12007 h 0.31256 z"
       style="fill:#000000;fill-opacity:1;fill-rule:nonzero;stroke:none;stroke-width:0.35277775"
       id="path102854"
       inkscape:connector-curvature="0" />
    <g
       id="g102856"
       transform="matrix(0.35277777,0,0,-0.35277777,109.64964,104.64984)">
      <path
         d="M 0,0 H 1.53 V -7.053 H 3.179 V 0 H 4.654 V 1.657 H 0 Z"
         style="fill:#000000;fill-opacity:1;fill-rule:nonzero;stroke:none"
         id="path102858"
         inkscape:connector-curvature="0" />
    </g>
    <g
       id="g102860"
       transform="matrix(0.35277777,0,0,-0.35277777,127.4966,106.14844)">
      <path
         d="m 0,0 -1.169,-1.351 c -0.175,-0.199 -0.484,-0.199 -0.651,0 l -8.592,9.991 -0.238,0.286 c -0.342,0.413 -0.661,0.85 -0.947,1.303 -1.152,1.828 -1.819,3.998 -1.819,6.319 v 0.031 c 0,6.439 5.103,11.684 11.477,11.914 0.246,0.008 0.444,-0.19 0.444,-0.429 v -1.518 c 0,-0.231 -0.183,-0.421 -0.421,-0.429 -5.087,-0.222 -9.14,-4.411 -9.14,-9.546 0,-1.709 0.453,-3.322 1.24,-4.713 0.247,-0.437 0.533,-0.858 0.842,-1.248 0.104,-0.127 0.207,-0.254 0.319,-0.381 0.127,-0.143 4.816,-5.373 4.816,-5.373 L -1.503,2.241 -0.017,0.572 C 0.143,0.413 0.143,0.167 0,0"
         style="fill:#000000;fill-opacity:1;fill-rule:nonzero;stroke:none"
         id="path102862"
         inkscape:connector-curvature="0" />
    </g>
    <g
       transform="matrix(0.35277777,0,0,-0.35277777,2.2070752,127.18211)"
       id="g102864">
      <g
         id="g102866"
         clip-path="url(#clipPath102870)">
        <path
           d="m 341.496,88.251 h 19.552 V 57.812 h -19.552 z"
           style="fill:#000000;fill-opacity:1;fill-rule:nonzero;stroke:none"
           id="path102872"
           inkscape:connector-curvature="0" />
      </g>
    </g>
    <g
       transform="matrix(0.35277777,0,0,-0.35277777,2.2070752,127.18211)"
       id="g102874">
      <g
         id="g102876"
         clip-path="url(#clipPath102880)">
        <g
           id="g102882"
           transform="translate(360.7705,76.25)">
          <path
             d="M 0,0 C 0,-1.812 -0.676,-3.465 -1.789,-4.729 -1.947,-4.911 -2.233,-4.92 -2.408,-4.745 l -1.089,1.089 c -0.159,0.159 -0.167,0.414 -0.024,0.581 0.707,0.834 1.128,1.907 1.128,3.083 0,1.319 -0.532,2.512 -1.399,3.37 -0.866,0.866 -2.058,1.398 -3.369,1.398 -1.312,0 -2.512,-0.532 -3.37,-1.398 -0.78,-0.779 -1.288,-1.82 -1.383,-2.973 -0.017,-0.222 -0.207,-0.397 -0.43,-0.397 h -1.517 c -0.246,0 -0.446,0.215 -0.43,0.461 0.238,3.735 3.339,6.692 7.138,6.692 1.978,0 3.767,-0.803 5.054,-2.099 C -0.803,3.76 0,1.972 0,0"
             style="fill:#000000;fill-opacity:1;fill-rule:nonzero;stroke:none"
             id="path102884"
             inkscape:connector-curvature="0" />
        </g>
      </g>
    </g>
    <g
       transform="matrix(0.35277777,0,0,-0.35277777,2.2070752,127.18211)"
       id="g102886">
      <g
         id="g102888"
         clip-path="url(#clipPath102892)">
        <path
           d="m 341.496,88.251 h 19.552 V 57.812 h -19.552 z"
           style="fill:#000000;fill-opacity:1;fill-rule:nonzero;stroke:none"
           id="path102894"
           inkscape:connector-curvature="0" />
      </g>
    </g>
    <g
       id="g102904"
       transform="matrix(0.35277777,0,0,-0.35277777,142.74665,104.55335)">
      <path
         d="m 0,0 v -0.392 h 1.499 v -4.985 h 0.444 v 4.985 H 3.445 V 0 Z m -2.97,-0.732 c 0.207,0.279 0.495,0.419 0.865,0.419 0.359,0 0.631,-0.103 0.816,-0.305 0.185,-0.204 0.283,-0.518 0.296,-0.944 h 0.409 l 0.012,0.022 c -0.006,0.537 -0.143,0.941 -0.41,1.212 -0.269,0.27 -0.643,0.406 -1.123,0.406 -0.493,0 -0.884,-0.178 -1.176,-0.53 -0.292,-0.354 -0.438,-0.852 -0.438,-1.493 v -1.49 c 0,-0.646 0.145,-1.145 0.436,-1.495 0.29,-0.349 0.683,-0.525 1.178,-0.525 0.475,0 0.847,0.139 1.119,0.416 0.27,0.277 0.408,0.678 0.414,1.202 l -0.012,0.023 h -0.409 c -0.013,-0.444 -0.111,-0.765 -0.296,-0.964 -0.185,-0.2 -0.457,-0.299 -0.816,-0.299 -0.37,0 -0.658,0.139 -0.865,0.418 -0.206,0.278 -0.309,0.685 -0.309,1.22 v 1.502 c 0,0.524 0.103,0.927 0.309,1.205 m -3.954,-2.045 h 2.112 v 0.378 h -2.112 v 2.007 H -4.52 V 0 h -2.847 v -5.377 h 2.869 V -5 h -2.426 z m -2.222,-1.084 c 0,-0.371 -0.083,-0.668 -0.248,-0.887 -0.165,-0.22 -0.374,-0.329 -0.628,-0.329 -0.298,0 -0.527,0.099 -0.687,0.299 -0.16,0.2 -0.239,0.493 -0.239,0.882 h -0.421 l -0.008,-0.018 c -0.01,-0.502 0.108,-0.885 0.355,-1.148 0.246,-0.261 0.579,-0.393 1,-0.393 0.392,0 0.709,0.144 0.953,0.431 0.243,0.287 0.365,0.676 0.365,1.17 V 0 h -0.442 z m -3.476,1.933 c 0,0.532 -0.109,0.933 -0.328,1.2 -0.22,0.269 -0.533,0.403 -0.943,0.403 -0.396,0 -0.7,-0.134 -0.912,-0.403 -0.211,-0.267 -0.317,-0.668 -0.317,-1.2 v -1.517 c 0,-0.539 0.106,-0.944 0.317,-1.211 0.212,-0.27 0.517,-0.404 0.916,-0.404 0.41,0 0.722,0.134 0.941,0.404 0.217,0.267 0.326,0.672 0.326,1.211 z m -0.019,1.485 c 0.306,-0.347 0.458,-0.846 0.458,-1.495 v -1.507 c 0,-0.653 -0.152,-1.151 -0.456,-1.494 -0.304,-0.343 -0.72,-0.516 -1.25,-0.516 -0.519,0 -0.927,0.173 -1.223,0.516 -0.297,0.343 -0.446,0.841 -0.446,1.494 v 1.507 c 0,0.652 0.149,1.151 0.444,1.497 0.295,0.345 0.703,0.519 1.221,0.519 0.53,0 0.948,-0.175 1.252,-0.521 m -4.732,-1.834 c 0.177,0.194 0.265,0.457 0.265,0.789 0,0.352 -0.087,0.623 -0.259,0.812 -0.173,0.19 -0.434,0.284 -0.786,0.284 h -1.101 v -2.174 h 1.048 c 0.38,0 0.657,0.096 0.833,0.289 m 0.748,-2.686 c 0.032,-0.133 0.086,-0.241 0.162,-0.325 v -0.089 h -0.454 c -0.076,0.089 -0.128,0.212 -0.157,0.371 -0.029,0.157 -0.042,0.325 -0.042,0.504 v 0.492 c 0,0.325 -0.082,0.585 -0.247,0.779 -0.165,0.192 -0.392,0.288 -0.679,0.288 h -1.212 v -2.434 h -0.443 v 5.373 h 1.544 c 0.482,0 0.851,-0.126 1.107,-0.38 0.257,-0.253 0.384,-0.622 0.384,-1.106 0,-0.285 -0.067,-0.539 -0.202,-0.761 -0.136,-0.224 -0.328,-0.388 -0.576,-0.493 0.273,-0.083 0.469,-0.234 0.588,-0.451 0.12,-0.217 0.179,-0.488 0.179,-0.81 v -0.507 c 0,-0.168 0.016,-0.317 0.048,-0.451 m -4.579,3.382 c 0,0.343 -0.086,0.627 -0.258,0.852 -0.172,0.225 -0.431,0.337 -0.775,0.337 h -1.149 v -2.371 h 1.149 c 0.344,0 0.603,0.114 0.775,0.338 0.172,0.226 0.258,0.508 0.258,0.844 m 0.059,1.149 c 0.259,-0.288 0.388,-0.668 0.388,-1.141 0,-0.478 -0.129,-0.86 -0.388,-1.147 -0.257,-0.286 -0.622,-0.43 -1.092,-0.43 h -1.149 v -2.227 h -0.443 V 0 h 1.592 c 0.47,0 0.835,-0.145 1.092,-0.432 M 1.536,1.985 c 0.545,0 0.983,0.14 1.312,0.419 0.329,0.28 0.493,0.666 0.493,1.159 0,0.478 -0.136,0.858 -0.409,1.138 C 2.659,4.981 2.252,5.213 1.712,5.396 1.37,5.545 1.13,5.68 0.991,5.801 0.854,5.923 0.784,6.077 0.784,6.266 0.784,6.469 0.847,6.638 0.97,6.772 1.095,6.906 1.268,6.974 1.488,6.974 1.727,6.974 1.91,6.893 2.041,6.73 2.172,6.569 2.237,6.358 2.237,6.098 h 1.08 L 3.325,6.12 C 3.336,6.619 3.171,7.032 2.832,7.359 2.492,7.687 2.052,7.851 1.509,7.851 0.974,7.851 0.533,7.704 0.189,7.41 -0.155,7.117 -0.327,6.736 -0.327,6.27 -0.327,5.796 -0.18,5.429 0.116,5.167 0.413,4.904 0.857,4.67 1.45,4.465 1.74,4.339 1.942,4.212 2.057,4.082 2.172,3.953 2.229,3.777 2.229,3.556 2.229,3.342 2.172,3.172 2.059,3.047 1.944,2.921 1.771,2.858 1.536,2.858 1.236,2.858 1.011,2.937 0.862,3.09 0.714,3.244 0.639,3.497 0.639,3.85 H -0.445 L -0.452,3.826 C -0.466,3.233 -0.273,2.778 0.125,2.462 0.522,2.145 0.993,1.985 1.536,1.985 M -2.327,7.769 -3.439,5.45 H -3.8 V 7.769 H -4.915 V 2.068 H -3.8 v 2.369 h 0.486 l 1.127,-2.369 h 1.355 l -1.684,3.097 1.555,2.604 z M -7.249,5.431 c 0.117,0.138 0.176,0.336 0.176,0.591 0,0.261 -0.059,0.468 -0.176,0.623 -0.118,0.154 -0.289,0.231 -0.514,0.231 H -8.51 V 5.224 h 0.744 c 0.227,0 0.399,0.068 0.517,0.207 M -7.204,4.1 C -7.321,4.257 -7.487,4.335 -7.703,4.335 H -8.51 V 2.068 h -1.112 v 5.697 h 1.859 c 0.562,0 1.002,-0.148 1.323,-0.445 0.319,-0.296 0.479,-0.708 0.479,-1.235 0,-0.297 -0.066,-0.554 -0.2,-0.77 C -6.294,5.1 -6.488,4.929 -6.744,4.801 -6.452,4.702 -6.241,4.537 -6.111,4.308 -5.982,4.077 -5.918,3.79 -5.918,3.446 V 3.043 c 0,-0.156 0.018,-0.324 0.055,-0.503 0.037,-0.18 0.1,-0.309 0.191,-0.39 V 2.068 H -6.823 C -6.914,2.151 -6.972,2.288 -6.995,2.476 -7.019,2.663 -7.03,2.854 -7.03,3.051 v 0.387 c 0,0.286 -0.058,0.505 -0.174,0.662 m -4.414,1.626 c 0,0.408 -0.076,0.716 -0.228,0.923 -0.151,0.209 -0.372,0.313 -0.661,0.313 -0.293,0 -0.513,-0.103 -0.658,-0.311 -0.147,-0.206 -0.219,-0.514 -0.219,-0.925 v -1.61 c 0,-0.414 0.073,-0.724 0.223,-0.931 0.148,-0.206 0.368,-0.31 0.657,-0.31 0.287,0 0.507,0.104 0.658,0.31 0.152,0.207 0.228,0.517 0.228,0.931 z m 0.559,1.555 c 0.366,-0.38 0.548,-0.902 0.548,-1.568 V 4.116 c 0,-0.669 -0.181,-1.191 -0.544,-1.566 -0.363,-0.376 -0.845,-0.565 -1.449,-0.565 -0.602,0 -1.084,0.189 -1.444,0.565 -0.361,0.375 -0.54,0.897 -0.54,1.566 v 1.597 c 0,0.666 0.179,1.188 0.54,1.568 0.36,0.38 0.841,0.57 1.441,0.57 0.6,0 1.083,-0.19 1.448,-0.57 m -5.05,0.488 -0.615,-3.637 h -0.023 l -0.834,3.637 h -0.799 l -0.822,-3.637 h -0.024 l -0.615,3.637 h -1.08 l 1.101,-5.701 h 1.033 l 0.795,3.493 h 0.023 l 0.803,-3.493 h 1.037 l 1.101,5.701 z m -7.616,-5.701 h 1.113 V 6.88 h 1.284 v 0.889 h -3.673 V 6.88 h 1.276 z m -4.028,2.502 h 1.914 v 0.889 h -1.914 V 6.88 h 2.243 v 0.889 h -3.359 V 2.068 h 3.367 v 0.889 h -2.251 z m -3.253,-0.434 -0.023,-0.009 -1.742,3.642 h -1.117 V 2.068 h 1.117 v 3.638 l 0.023,0.007 1.742,-3.645 h 1.109 v 5.701 h -1.109 z m 32.338,5.868 c 0.473,0 0.862,0.094 1.171,0.28 0.308,0.187 0.538,0.403 0.692,0.648 v 2.122 H 1.332 V 12.271 H 2.083 V 11.249 C 2.016,11.131 1.929,11.043 1.823,10.982 1.718,10.923 1.553,10.893 1.332,10.893 c -0.298,0 -0.524,0.096 -0.68,0.288 -0.155,0.192 -0.232,0.488 -0.232,0.887 v 1.748 c 0,0.392 0.076,0.684 0.23,0.876 0.155,0.193 0.368,0.287 0.639,0.287 0.276,0 0.482,-0.073 0.616,-0.22 0.135,-0.149 0.206,-0.383 0.213,-0.704 h 1.046 l 0.008,0.023 c -0.013,0.575 -0.178,1.019 -0.493,1.327 -0.317,0.31 -0.79,0.464 -1.421,0.464 -0.588,0 -1.06,-0.18 -1.416,-0.541 -0.357,-0.359 -0.534,-0.867 -0.534,-1.522 v -1.739 c 0,-0.66 0.184,-1.169 0.553,-1.527 0.369,-0.357 0.861,-0.536 1.471,-0.536 m -5.813,3.72 0.023,0.007 1.742,-3.645 h 1.109 v 5.7 h -1.109 v -3.633 l -0.023,-0.007 -1.742,3.64 h -1.117 v -5.7 h 1.117 z m -2.202,2.062 H -7.79 v -5.7 h 1.107 z m -4.258,-5.7 h 1.111 v 4.811 h 1.284 v 0.889 h -3.673 v -0.889 h 1.278 z m -3.767,2.106 h 1.049 l -0.513,2.017 h -0.023 z m -0.533,-2.106 h -1.123 l 1.605,5.7 h 1.159 l 1.601,-5.7 h -1.123 l -0.31,1.218 h -1.504 z m -1.495,0.889 h -2.251 v 1.613 h 1.914 v 0.889 h -1.914 v 1.42 h 2.243 v 0.889 h -3.359 v -5.7 h 3.367 z m -6.961,2.266 h 0.744 c 0.226,0 0.398,0.07 0.516,0.208 0.117,0.138 0.176,0.335 0.176,0.592 0,0.261 -0.059,0.468 -0.176,0.622 -0.118,0.154 -0.289,0.231 -0.513,0.231 h -0.747 z m 0,-3.155 h -1.113 v 5.696 h 1.86 c 0.561,0 1.002,-0.147 1.322,-0.443 0.319,-0.297 0.48,-0.709 0.48,-1.235 0,-0.298 -0.067,-0.555 -0.201,-0.77 -0.132,-0.216 -0.327,-0.387 -0.583,-0.515 0.292,-0.099 0.502,-0.263 0.633,-0.494 0.129,-0.229 0.194,-0.516 0.194,-0.86 v -0.404 c 0,-0.156 0.017,-0.325 0.054,-0.502 0.036,-0.18 0.1,-0.309 0.192,-0.391 v -0.082 h -1.152 c -0.092,0.083 -0.148,0.22 -0.172,0.407 -0.023,0.189 -0.035,0.38 -0.035,0.575 v 0.388 c 0,0.285 -0.058,0.506 -0.174,0.662 -0.117,0.157 -0.283,0.236 -0.499,0.236 h -0.806 z m -5.149,0.46 c -0.352,0.361 -0.528,0.874 -0.528,1.536 v 1.704 c 0,0.66 0.17,1.172 0.511,1.537 0.34,0.365 0.796,0.546 1.368,0.546 0.605,0 1.062,-0.162 1.372,-0.485 0.31,-0.323 0.47,-0.803 0.479,-1.438 l -0.01,-0.023 h -1.074 c 0.016,0.375 -0.035,0.644 -0.153,0.81 -0.117,0.164 -0.321,0.246 -0.614,0.246 -0.25,0 -0.442,-0.096 -0.575,-0.292 -0.133,-0.197 -0.201,-0.494 -0.201,-0.89 v -1.713 c 0,-0.402 0.072,-0.701 0.214,-0.897 0.142,-0.196 0.351,-0.294 0.624,-0.294 0.269,0 0.456,0.078 0.563,0.232 0.105,0.155 0.152,0.422 0.139,0.798 h 1.072 l 0.012,-0.024 c 0.005,-0.627 -0.144,-1.099 -0.447,-1.418 -0.302,-0.318 -0.749,-0.477 -1.339,-0.477 -0.589,0 -1.06,0.181 -1.413,0.542"
         style="fill:#000000;fill-opacity:1;fill-rule:nonzero;stroke:none"
         id="path102906"
         inkscape:connector-curvature="0" />
    </g>
    <path
       d="M 151.12198,90.130913 H 106.4522 v -12.11968 h 44.66978 z"
       style="fill:#000000;fill-opacity:1;fill-rule:nonzero;stroke:none;stroke-width:0.35277775"
       id="path102916"
       inkscape:connector-curvature="0" />
    <g
       id="g102918"
       transform="matrix(0.35277777,0,0,-0.35277777,151.12205,90.130803)">
      <path
         d="M 0,0 H -126.623 V 34.355 H 0 Z"
         style="fill:none;stroke:#000000;stroke-width:1.25699997;stroke-linecap:butt;stroke-linejoin:miter;stroke-miterlimit:10;stroke-dasharray:none;stroke-opacity:1"
         id="path102920"
         inkscape:connector-curvature="0" />
    </g>
    <path
       d="m 149.99697,89.005553 h -44.66978 v -12.11968 h 44.66978 z"
       style="fill:#ffffff;fill-opacity:1;fill-rule:nonzero;stroke:none;stroke-width:0.35277775"
       id="path102922"
       inkscape:connector-curvature="0" />
    <g
       id="g102924"
       transform="matrix(0.35277777,0,0,-0.35277777,149.99704,89.005443)">
      <path
         d="M 0,0 H -126.623 V 34.355 H 0 Z"
         style="fill:none;stroke:#000000;stroke-width:2;stroke-linecap:butt;stroke-linejoin:miter;stroke-miterlimit:10;stroke-dasharray:none;stroke-opacity:1"
         id="path102926"
         inkscape:connector-curvature="0" />
    </g>
    <g
       id="g102928"
       transform="matrix(0.35277777,0,0,-0.35277777,109.01813,79.429643)">
      <path
         d="m 0,0 v -5.153 c 0,-1.126 -0.78,-2.015 -2.063,-2.015 -1.293,0 -2.054,0.889 -2.054,2.015 v 0.384 h 1.205 v -0.395 c 0,-0.503 0.296,-0.868 0.849,-0.868 0.552,0 0.848,0.365 0.848,0.868 V 0 Z"
         style="fill:#000000;fill-opacity:1;fill-rule:nonzero;stroke:none"
         id="path102930"
         inkscape:connector-curvature="0" />
    </g>
    <g
       id="g102932"
       transform="matrix(0.35277777,0,0,-0.35277777,111.31323,79.429643)">
      <path
         d="m 0,0 v -4.769 c 0,-1.342 -0.868,-2.399 -2.319,-2.399 -1.461,0 -2.33,1.057 -2.33,2.399 V 0 h 1.204 v -4.778 c 0,-0.711 0.385,-1.254 1.126,-1.254 0.711,0 1.115,0.543 1.115,1.254 V 0 Z"
         style="fill:#000000;fill-opacity:1;fill-rule:nonzero;stroke:none"
         id="path102934"
         inkscape:connector-curvature="0" />
    </g>
    <g
       id="g102936"
       transform="matrix(0.35277777,0,0,-0.35277777,112.41083,81.501823)">
      <path
         d="m 0,0 h 2.498 v -1.136 h -3.702 v 7.01 H 0 Z"
         style="fill:#000000;fill-opacity:1;fill-rule:nonzero;stroke:none"
         id="path102938"
         inkscape:connector-curvature="0" />
    </g>
    <path
       d="m 114.21896,81.902723 h -0.42475 v -2.47297 h 0.42475 z"
       style="fill:#000000;fill-opacity:1;fill-rule:nonzero;stroke:none;stroke-width:0.35277775"
       id="path102940"
       inkscape:connector-curvature="0" />
    <g
       id="g102942"
       transform="matrix(0.35277777,0,0,-0.35277777,115.39262,80.979603)">
      <path
         d="M 0,0 H 1.49 L 0.74,2.646 Z m 2.23,-2.616 -0.423,1.48 h -2.123 l -0.414,-1.48 h -1.275 l 2.162,7.01 h 1.196 l 2.141,-7.01 z"
         style="fill:#000000;fill-opacity:1;fill-rule:nonzero;stroke:none"
         id="path102944"
         inkscape:connector-curvature="0" />
    </g>
    <g
       id="g102946"
       transform="matrix(0.35277777,0,0,-0.35277777,118.79188,81.902543)">
      <path
         d="M 0,0 H -1.086 L -3.604,4.601 V 0 h -1.204 v 7.01 h 1.125 L -1.205,2.557 V 7.01 H 0 Z"
         style="fill:#000000;fill-opacity:1;fill-rule:nonzero;stroke:none"
         id="path102948"
         inkscape:connector-curvature="0" />
    </g>
    <g
       id="g102950"
       transform="matrix(0.35277777,0,0,-0.35277777,119.96253,80.979603)">
      <path
         d="M 0,0 H 1.49 L 0.74,2.646 Z m 2.23,-2.616 -0.423,1.48 h -2.123 l -0.414,-1.48 h -1.275 l 2.162,7.01 h 1.196 l 2.141,-7.01 z"
         style="fill:#000000;fill-opacity:1;fill-rule:nonzero;stroke:none"
         id="path102952"
         inkscape:connector-curvature="0" />
    </g>
    <g
       id="g102954"
       transform="matrix(0.35277777,0,0,-0.35277777,124.27094,81.902543)">
      <path
         d="M 0,0 H -1.086 L -3.604,4.601 V 0 h -1.204 v 7.01 h 1.125 L -1.205,2.557 V 7.01 H 0 Z"
         style="fill:#000000;fill-opacity:1;fill-rule:nonzero;stroke:none"
         id="path102956"
         inkscape:connector-curvature="0" />
    </g>
    <g
       id="g102958"
       transform="matrix(0.35277777,0,0,-0.35277777,125.3231,80.220283)">
      <path
         d="m 0,0 v -2.527 c 0,-0.702 0.425,-1.264 1.214,-1.264 0.8,0 1.224,0.562 1.224,1.264 L 2.438,0 C 2.438,0.701 2.004,1.264 1.214,1.264 0.435,1.264 0,0.701 0,0 m 3.643,0 v -2.518 c 0,-1.342 -0.889,-2.409 -2.419,-2.409 -1.5,0 -2.418,1.067 -2.418,2.409 V 0 c 0,1.322 0.918,2.398 2.418,2.398 1.501,0 2.419,-1.076 2.419,-2.398"
         style="fill:#000000;fill-opacity:1;fill-rule:nonzero;stroke:none"
         id="path102960"
         inkscape:connector-curvature="0" />
    </g>
    <g
       id="g102962"
       transform="matrix(0.35277777,0,0,-0.35277777,128.15495,81.902543)">
      <path
         d="m 0,0 h -1.185 l -2.152,7.01 h 1.264 L -0.592,1.886 0.879,7.01 h 1.283 z"
         style="fill:#000000;fill-opacity:1;fill-rule:nonzero;stroke:none"
         id="path102964"
         inkscape:connector-curvature="0" />
    </g>
    <g
       id="g102966"
       transform="matrix(0.35277777,0,0,-0.35277777,129.74002,80.979603)">
      <path
         d="M 0,0 H 1.49 L 0.74,2.646 Z m 2.23,-2.616 -0.423,1.48 h -2.123 l -0.414,-1.48 h -1.275 l 2.162,7.01 h 1.196 l 2.141,-7.01 z"
         style="fill:#000000;fill-opacity:1;fill-rule:nonzero;stroke:none"
         id="path102968"
         inkscape:connector-curvature="0" />
    </g>
    <g
       id="g102970"
       transform="matrix(0.35277777,0,0,-0.35277777,131.86804,79.830333)">
      <path
         d="M 0,0 V -1.708 H 2.083 V -2.843 H 0 v -1.895 h 2.686 v -1.136 h -3.89 v 7.01 h 3.89 V 0 Z"
         style="fill:#000000;fill-opacity:1;fill-rule:nonzero;stroke:none"
         id="path102972"
         inkscape:connector-curvature="0" />
    </g>
    <g
       id="g102974"
       transform="matrix(0.35277777,0,0,-0.35277777,134.47013,80.150723)">
      <path
         d="m 0,0 c 0,0.691 -0.514,1.066 -1.027,1.066 -0.484,0 -0.928,-0.276 -0.928,-0.79 0,-0.504 0.404,-0.769 0.968,-0.977 l 0.632,-0.236 c 0.997,-0.396 1.687,-0.978 1.687,-2.094 0,-1.342 -1.154,-2.093 -2.31,-2.093 -1.205,0 -2.339,0.8 -2.339,2.281 v 0.148 h 1.204 v -0.138 c 0,-0.701 0.464,-1.155 1.135,-1.155 0.623,0 1.106,0.315 1.106,0.908 0,0.562 -0.474,0.839 -1.017,1.046 l -0.641,0.237 c -1.076,0.425 -1.629,0.997 -1.629,2.014 0,1.155 0.888,1.984 2.132,1.984 1.254,0 2.202,-0.918 2.202,-2.141 V -0.148 H 0 Z"
         style="fill:#000000;fill-opacity:1;fill-rule:nonzero;stroke:none"
         id="path102976"
         inkscape:connector-curvature="0" />
    </g>
    <g
       id="g102978"
       transform="matrix(0.35277777,0,0,-0.35277777,136.9086,80.979603)">
      <path
         d="M 0,0 H 1.49 L 0.74,2.646 Z m 2.23,-2.616 -0.423,1.48 h -2.123 l -0.414,-1.48 h -1.275 l 2.162,7.01 h 1.196 l 2.141,-7.01 z"
         style="fill:#000000;fill-opacity:1;fill-rule:nonzero;stroke:none"
         id="path102980"
         inkscape:connector-curvature="0" />
    </g>
    <g
       id="g102982"
       transform="matrix(0.35277777,0,0,-0.35277777,140.3079,81.902543)">
      <path
         d="M 0,0 H -1.086 L -3.604,4.601 V 0 h -1.204 v 7.01 h 1.125 L -1.205,2.557 V 7.01 H 0 Z"
         style="fill:#000000;fill-opacity:1;fill-rule:nonzero;stroke:none"
         id="path102984"
         inkscape:connector-curvature="0" />
    </g>
    <g
       id="g102986"
       transform="matrix(0.35277777,0,0,-0.35277777,141.41925,81.501823)">
      <path
         d="m 0,0 h 0.968 c 0.779,0 1.214,0.493 1.214,1.175 v 2.369 c 0,0.711 -0.435,1.194 -1.214,1.194 H 0 Z m 0.978,5.874 c 1.519,0 2.408,-0.997 2.408,-2.33 V 1.185 c 0,-1.314 -0.889,-2.321 -2.408,-2.321 h -2.172 v 7.01 z"
         style="fill:#000000;fill-opacity:1;fill-rule:nonzero;stroke:none"
         id="path102988"
         inkscape:connector-curvature="0" />
    </g>
    <g
       id="g102990"
       transform="matrix(0.35277777,0,0,-0.35277777,108.95541,85.462353)">
      <path
         d="M 0,0 V 0.355 H -1.273 V 1.471 H 1.105 V -2.251 H 0.118 v 0.514 c -0.315,-0.406 -0.8,-0.672 -1.511,-0.672 -1.362,0 -2.23,1.047 -2.23,2.281 v 2.646 c 0,1.322 0.898,2.398 2.379,2.398 1.451,0 2.31,-1.046 2.31,-2.31 V 2.508 h -1.205 v 0.098 c 0,0.642 -0.404,1.175 -1.105,1.175 -0.75,0 -1.175,-0.562 -1.175,-1.263 V 0 c 0,-0.75 0.415,-1.273 1.204,-1.273 C -0.494,-1.273 0,-0.859 0,0"
         style="fill:#000000;fill-opacity:1;fill-rule:nonzero;stroke:none"
         id="path102992"
         inkscape:connector-curvature="0" />
    </g>
    <g
       id="g102994"
       transform="matrix(0.35277777,0,0,-0.35277777,111.59884,83.783553)">
      <path
         d="m 0,0 v -4.769 c 0,-1.342 -0.868,-2.399 -2.319,-2.399 -1.461,0 -2.33,1.057 -2.33,2.399 V 0 h 1.204 v -4.778 c 0,-0.711 0.384,-1.254 1.126,-1.254 0.711,0 1.115,0.543 1.115,1.254 V 0 Z"
         style="fill:#000000;fill-opacity:1;fill-rule:nonzero;stroke:none"
         id="path102996"
         inkscape:connector-curvature="0" />
    </g>
    <path
       d="m 112.69637,86.256353 h -0.42475 v -2.47297 h 0.42475 z"
       style="fill:#000000;fill-opacity:1;fill-rule:nonzero;stroke:none;stroke-width:0.35277775"
       id="path102998"
       inkscape:connector-curvature="0" />
    <g
       id="g103000"
       transform="matrix(0.35277777,0,0,-0.35277777,113.81475,85.855733)">
      <path
         d="m 0,0 h 2.498 v -1.136 h -3.702 v 7.01 H 0 Z"
         style="fill:#000000;fill-opacity:1;fill-rule:nonzero;stroke:none"
         id="path103002"
         inkscape:connector-curvature="0" />
    </g>
    <g
       id="g103004"
       transform="matrix(0.35277777,0,0,-0.35277777,116.84126,83.783553)">
      <path
         d="m 0,0 v -7.01 h -1.204 v 3.031 H -3.455 V -7.01 H -4.659 V 0 h 1.204 v -2.844 h 2.251 V 0 Z"
         style="fill:#000000;fill-opacity:1;fill-rule:nonzero;stroke:none"
         id="path103006"
         inkscape:connector-curvature="0" />
    </g>
    <g
       id="g103008"
       transform="matrix(0.35277777,0,0,-0.35277777,117.95953,84.184243)">
      <path
         d="M 0,0 V -1.708 H 2.083 V -2.843 H 0 v -1.895 h 2.686 v -1.136 h -3.89 v 7.01 h 3.89 V 0 Z"
         style="fill:#000000;fill-opacity:1;fill-rule:nonzero;stroke:none"
         id="path103010"
         inkscape:connector-curvature="0" />
    </g>
    <g
       id="g103012"
       transform="matrix(0.35277777,0,0,-0.35277777,119.93463,84.180743)">
      <path
         d="m 0,0 v -1.718 h 0.858 c 0.593,0 0.909,0.336 0.909,0.86 C 1.767,-0.336 1.451,0 0.858,0 Z m 0.858,1.126 c 1.492,0 2.123,-1.008 2.123,-1.984 0,-0.771 -0.424,-1.629 -1.391,-1.886 l 2.072,-3.14 H 2.251 L 0.346,-2.843 H 0 v -3.041 h -1.204 v 7.01 z"
         style="fill:#000000;fill-opacity:1;fill-rule:nonzero;stroke:none"
         id="path103014"
         inkscape:connector-curvature="0" />
    </g>
    <g
       id="g103016"
       transform="matrix(0.35277777,0,0,-0.35277777,122.0871,84.661333)">
      <path
         d="m 0,0 v -4.521 h -1.204 v 7.009 h 0.819 l 2.113,-3.11 2.123,3.11 H 4.67 V -4.521 H 3.465 V 0 L 1.855,-2.28 H 1.6 Z"
         style="fill:#000000;fill-opacity:1;fill-rule:nonzero;stroke:none"
         id="path103018"
         inkscape:connector-curvature="0" />
    </g>
    <g
       id="g103020"
       transform="matrix(0.35277777,0,0,-0.35277777,124.85285,84.184243)">
      <path
         d="M 0,0 V -1.708 H 2.083 V -2.843 H 0 v -1.895 h 2.686 v -1.136 h -3.89 v 7.01 h 3.89 V 0 Z"
         style="fill:#000000;fill-opacity:1;fill-rule:nonzero;stroke:none"
         id="path103022"
         inkscape:connector-curvature="0" />
    </g>
    <g
       id="g103024"
       transform="matrix(0.35277777,0,0,-0.35277777,127.79286,85.333523)">
      <path
         d="M 0,0 H 1.49 L 0.74,2.646 Z m 2.23,-2.616 -0.423,1.48 h -2.123 l -0.414,-1.48 h -1.275 l 2.162,7.01 h 1.196 l 2.141,-7.01 z"
         style="fill:#000000;fill-opacity:1;fill-rule:nonzero;stroke:none"
         id="path103026"
         inkscape:connector-curvature="0" />
    </g>
    <g
       id="g103028"
       transform="matrix(0.35277777,0,0,-0.35277777,129.92088,85.855733)">
      <path
         d="m 0,0 h 2.498 v -1.136 h -3.702 v 7.01 H 0 Z"
         style="fill:#000000;fill-opacity:1;fill-rule:nonzero;stroke:none"
         id="path103030"
         inkscape:connector-curvature="0" />
    </g>
    <g
       id="g103032"
       transform="matrix(0.35277777,0,0,-0.35277777,131.99695,86.256423)">
      <path
         d="m 0,0 h -1.185 l -2.152,7.01 h 1.264 L -0.592,1.886 0.879,7.01 h 1.283 z"
         style="fill:#000000;fill-opacity:1;fill-rule:nonzero;stroke:none"
         id="path103034"
         inkscape:connector-curvature="0" />
    </g>
    <g
       id="g103036"
       transform="matrix(0.35277777,0,0,-0.35277777,133.65162,84.184243)">
      <path
         d="M 0,0 V -1.708 H 2.083 V -2.843 H 0 v -1.895 h 2.686 v -1.136 h -3.89 v 7.01 h 3.89 V 0 Z"
         style="fill:#000000;fill-opacity:1;fill-rule:nonzero;stroke:none"
         id="path103038"
         inkscape:connector-curvature="0" />
    </g>
    <g
       id="g103040"
       transform="matrix(0.35277777,0,0,-0.35277777,136.25335,84.504593)">
      <path
         d="m 0,0 c 0,0.691 -0.514,1.066 -1.027,1.066 -0.484,0 -0.928,-0.276 -0.928,-0.79 0,-0.504 0.404,-0.769 0.968,-0.977 l 0.632,-0.236 c 0.997,-0.396 1.687,-0.978 1.687,-2.094 0,-1.342 -1.154,-2.093 -2.31,-2.093 -1.205,0 -2.339,0.8 -2.339,2.281 v 0.148 h 1.204 v -0.138 c 0,-0.701 0.464,-1.155 1.135,-1.155 0.623,0 1.106,0.315 1.106,0.908 0,0.562 -0.474,0.839 -1.017,1.046 l -0.641,0.237 c -1.076,0.425 -1.629,0.997 -1.629,2.014 0,1.155 0.888,1.984 2.132,1.984 1.254,0 2.202,-0.918 2.202,-2.141 V -0.148 H 0 Z"
         style="fill:#000000;fill-opacity:1;fill-rule:nonzero;stroke:none"
         id="path103042"
         inkscape:connector-curvature="0" />
    </g>
    <g
       id="g103044"
       transform="matrix(0.35277777,0,0,-0.35277777,138.64977,85.970813)">
      <path
         d="M 0,0 C 0,-0.425 0.198,-0.553 0.475,-0.553 H 0.73 V -1.55 H 0.267 c -0.789,0 -1.372,0.572 -1.372,1.392 v 5.706 c 0,0.809 0.583,1.392 1.372,1.392 H 0.73 V 5.943 H 0.475 C 0.198,5.943 0,5.814 0,5.391 Z"
         style="fill:#000000;fill-opacity:1;fill-rule:nonzero;stroke:none"
         id="path103046"
         inkscape:connector-curvature="0" />
    </g>
    <g
       id="g103048"
       transform="matrix(0.35277777,0,0,-0.35277777,139.85521,84.574163)">
      <path
         d="m 0,0 v -2.527 c 0,-0.702 0.425,-1.264 1.214,-1.264 0.8,0 1.224,0.562 1.224,1.264 L 2.438,0 C 2.438,0.701 2.004,1.264 1.214,1.264 0.435,1.264 0,0.701 0,0 m 3.643,0 v -2.518 c 0,-1.342 -0.889,-2.409 -2.419,-2.409 -1.5,0 -2.418,1.067 -2.418,2.409 V 0 c 0,1.322 0.918,2.398 2.418,2.398 1.501,0 2.419,-1.076 2.419,-2.398"
         style="fill:#000000;fill-opacity:1;fill-rule:nonzero;stroke:none"
         id="path103050"
         inkscape:connector-curvature="0" />
    </g>
    <g
       id="g103052"
       transform="matrix(0.35277777,0,0,-0.35277777,142.19579,84.180743)">
      <path
         d="m 0,0 v -1.718 h 0.858 c 0.593,0 0.909,0.336 0.909,0.86 C 1.767,-0.336 1.451,0 0.858,0 Z m 0.858,1.126 c 1.492,0 2.123,-1.008 2.123,-1.984 0,-0.771 -0.424,-1.629 -1.392,-1.886 l 2.073,-3.14 H 2.251 L 0.346,-2.843 H 0 v -3.041 h -1.204 v 7.01 z"
         style="fill:#000000;fill-opacity:1;fill-rule:nonzero;stroke:none"
         id="path103054"
         inkscape:connector-curvature="0" />
    </g>
    <g
       id="g103056"
       transform="matrix(0.35277777,0,0,-0.35277777,145.12511,85.462353)">
      <path
         d="M 0,0 V 0.355 H -1.273 V 1.471 H 1.105 V -2.251 H 0.118 v 0.514 c -0.315,-0.406 -0.8,-0.672 -1.511,-0.672 -1.362,0 -2.23,1.047 -2.23,2.281 v 2.646 c 0,1.322 0.898,2.398 2.379,2.398 1.451,0 2.31,-1.046 2.31,-2.31 V 2.508 h -1.205 v 0.098 c 0,0.642 -0.404,1.175 -1.105,1.175 -0.75,0 -1.175,-0.562 -1.175,-1.263 V 0 c 0,-0.75 0.415,-1.273 1.204,-1.273 C -0.494,-1.273 0,-0.859 0,0"
         style="fill:#000000;fill-opacity:1;fill-rule:nonzero;stroke:none"
         id="path103058"
         inkscape:connector-curvature="0" />
    </g>
    <path
       d="m 146.57397,86.256353 h -0.47731 v -0.48401 h 0.47731 z"
       style="fill:#000000;fill-opacity:1;fill-rule:nonzero;stroke:none;stroke-width:0.35277775"
       id="path103060"
       inkscape:connector-curvature="0" />
    <g
       id="g103062"
       transform="matrix(0.35277777,0,0,-0.35277777,147.36822,84.069163)">
      <path
         d="M 0,0 C 0,0.424 -0.197,0.553 -0.474,0.553 H -0.73 V 1.55 h 0.463 c 0.79,0 1.373,-0.583 1.373,-1.393 v -5.706 c 0,-0.819 -0.583,-1.391 -1.373,-1.391 H -0.73 v 0.997 h 0.256 c 0.277,0 0.474,0.128 0.474,0.552 z"
         style="fill:#000000;fill-opacity:1;fill-rule:nonzero;stroke:none"
         id="path103064"
         inkscape:connector-curvature="0" />
    </g>
    <g
       id="g102660"
       transform="matrix(0.35277777,0,0,-0.35277777,74.45462,108.5777)">
      <path
         d="M 0,0 -2.648,-0.397 -4.109,9.329 -10.237,5.989 -5.1,24.935 5.377,8.334 -1.461,9.727 Z M 9.081,5.776 -5.752,29.28 -13.025,2.456 -5.481,6.568 -4.134,-2.407 2.01,-1.484 0.661,7.491 Z"
         style="fill:#000000;fill-opacity:1;fill-rule:nonzero;stroke:none"
         id="path102662"
         inkscape:connector-curvature="0" />
    </g>
    <g
       id="g102664"
       transform="matrix(0.35277777,0,0,-0.35277777,74.45462,108.5777)">
      <path
         d="M 0,0 -2.648,-0.397 -4.109,9.329 -10.237,5.989 -5.1,24.935 5.377,8.334 -1.461,9.727 Z"
         style="fill:#ffffff;fill-opacity:1;fill-rule:nonzero;stroke:none"
         id="path102666"
         inkscape:connector-curvature="0" />
    </g>
    <g
       id="g102668"
       transform="matrix(0.35277777,0,0,-0.35277777,71.700996,90.673995)">
      <path
         d="m 0,0 -2.089,1.675 6.15,7.675 -6.613,2.232 17.4,9.089 L 9.771,1.709 6.15,7.676 Z M 10.406,-2.747 17.595,24.1 -7.039,11.231 1.103,8.483 -4.573,1.4 0.274,-2.484 5.95,4.599 Z"
         style="fill:#000000;fill-opacity:1;fill-rule:nonzero;stroke:none"
         id="path102670"
         inkscape:connector-curvature="0" />
    </g>
    <g
       id="g102672"
       transform="matrix(0.35277777,0,0,-0.35277777,71.700996,90.673995)">
      <path
         d="m 0,0 -2.089,1.675 6.15,7.675 -6.613,2.232 17.4,9.089 L 9.771,1.709 6.15,7.676 Z"
         style="fill:#ffffff;fill-opacity:1;fill-rule:nonzero;stroke:none"
         id="path102674"
         inkscape:connector-curvature="0" />
    </g>
    <g
       id="g102612"
       transform="matrix(0.35277777,0,0,-0.35277777,56.955526,88.376693)">
      <path
         d="M 0,0 C 2.995,0.458 5.537,-2.084 5.078,-5.079 4.793,-6.945 3.268,-8.47 1.401,-8.756 -1.594,-9.215 -4.136,-6.672 -3.677,-3.678 -3.392,-1.812 -1.866,-0.286 0,0 M 10.047,-10.214 C 11.1,-8.575 11.69,-6.621 11.72,-4.537 11.8,1.302 7.12,6.323 1.288,6.627 -5.064,6.956 -10.319,1.903 -10.319,-4.378 c 0,-2.143 0.593,-4.156 1.674,-5.836 1.792,-2.79 6.496,-9.404 8.462,-12.156 0.433,-0.607 1.334,-0.607 1.767,0 1.967,2.752 6.67,9.366 8.463,12.156"
         style="fill:#ff8b00;fill-opacity:1;fill-rule:nonzero;stroke:none"
         id="path102614"
         inkscape:connector-curvature="0" />
    </g>
    <path
       d="m 91.476782,80.307997 c 1.05622,-0.161925 1.95333,0.735189 1.7914,1.791401 -0.10054,0.65829 -0.63852,1.19663 -1.29716,1.29752 -1.05657,0.16157 -1.953333,-0.73519 -1.791413,-1.791757 0.10055,-0.65793 0.638893,-1.196269 1.297173,-1.297164 m 3.54436,3.603271 c 0.37147,-0.5782 0.57961,-1.26753 0.59019,-2.002718 0.0282,-2.059869 -1.62277,-3.831519 -3.68017,-3.938411 -2.240853,-0.116417 -4.094703,1.666522 -4.094703,3.882319 0,0.756 0.2092,1.46614 0.5902,2.05881 0.63253,0.98425 2.292003,3.31752 2.985213,4.28837 0.1531,0.21413 0.47096,0.21413 0.62371,0 0.69391,-0.97085 2.35303,-3.30412 2.98556,-4.28837"
       style="fill:#ff8b00;fill-opacity:1;fill-rule:nonzero;stroke:none;stroke-width:0.35277775"
       id="path102618"
       inkscape:connector-curvature="0" />
  </g>
</svg>
